<svg xmlns="http://www.w3.org/2000/svg" xmlns:xlink="http://www.w3.org/1999/xlink" width="500" zoomAndPan="magnify" viewBox="0 0 375 374.999991" height="500" preserveAspectRatio="xMidYMid meet" version="1.0"><defs><g/><clipPath id="550b6347c6"><path d="M 19 2 L 128 2 L 128 111 L 19 111 Z M 19 2 " clip-rule="nonzero"/></clipPath><clipPath id="4c468c25f1"><path d="M 73.53125 0.402344 L 129.765625 56.632812 L 73.53125 112.867188 L 17.296875 56.632812 Z M 73.53125 0.402344 " clip-rule="nonzero"/></clipPath><clipPath id="69faa5509e"><path d="M 77.242188 4.113281 L 126.050781 52.921875 C 128.101562 54.972656 128.101562 58.296875 126.050781 60.34375 L 77.242188 109.152344 C 75.191406 111.203125 71.867188 111.203125 69.820312 109.152344 L 21.011719 60.34375 C 18.960938 58.296875 18.960938 54.972656 21.011719 52.921875 L 69.820312 4.113281 C 71.867188 2.0625 75.191406 2.0625 77.242188 4.113281 Z M 77.242188 4.113281 " clip-rule="nonzero"/></clipPath><clipPath id="9d225f26fc"><path d="M 94 2 L 203 2 L 203 111 L 94 111 Z M 94 2 " clip-rule="nonzero"/></clipPath><clipPath id="3946711e10"><path d="M 148.941406 0.402344 L 205.171875 56.632812 L 148.941406 112.867188 L 92.707031 56.632812 Z M 148.941406 0.402344 " clip-rule="nonzero"/></clipPath><clipPath id="27d87ddfd2"><path d="M 152.652344 4.113281 L 201.460938 52.921875 C 203.511719 54.972656 203.511719 58.296875 201.460938 60.34375 L 152.652344 109.152344 C 150.601562 111.203125 147.277344 111.203125 145.230469 109.152344 L 96.421875 60.34375 C 94.371094 58.296875 94.371094 54.972656 96.421875 52.921875 L 145.230469 4.113281 C 147.277344 2.0625 150.601562 2.0625 152.652344 4.113281 Z M 152.652344 4.113281 " clip-rule="nonzero"/></clipPath><clipPath id="4efd09617b"><path d="M 170 2 L 279 2 L 279 111 L 170 111 Z M 170 2 " clip-rule="nonzero"/></clipPath><clipPath id="a0973cf4e9"><path d="M 224.351562 0.00390625 L 280.582031 56.238281 L 224.351562 112.46875 L 168.117188 56.238281 Z M 224.351562 0.00390625 " clip-rule="nonzero"/></clipPath><clipPath id="ef78c09594"><path d="M 228.0625 3.714844 L 276.871094 52.523438 C 278.921875 54.574219 278.921875 57.898438 276.871094 59.949219 L 228.0625 108.757812 C 226.011719 110.808594 222.6875 110.808594 220.636719 108.757812 L 171.832031 59.949219 C 169.78125 57.898438 169.78125 54.574219 171.832031 52.523438 L 220.636719 3.714844 C 222.6875 1.667969 226.011719 1.667969 228.0625 3.714844 Z M 228.0625 3.714844 " clip-rule="nonzero"/></clipPath><clipPath id="e1cd06b660"><path d="M 245 2 L 354 2 L 354 111 L 245 111 Z M 245 2 " clip-rule="nonzero"/></clipPath><clipPath id="053bef4480"><path d="M 299.761719 0.00390625 L 355.992188 56.238281 L 299.761719 112.46875 L 243.527344 56.238281 Z M 299.761719 0.00390625 " clip-rule="nonzero"/></clipPath><clipPath id="ea52590386"><path d="M 303.472656 3.714844 L 352.28125 52.523438 C 354.332031 54.574219 354.332031 57.898438 352.28125 59.949219 L 303.472656 108.757812 C 301.421875 110.808594 298.097656 110.808594 296.046875 108.757812 L 247.242188 59.949219 C 245.191406 57.898438 245.191406 54.574219 247.242188 52.523438 L 296.046875 3.714844 C 298.097656 1.667969 301.421875 1.667969 303.472656 3.714844 Z M 303.472656 3.714844 " clip-rule="nonzero"/></clipPath><clipPath id="d0a8725ee9"><path d="M 30 12.214844 L 345 12.214844 L 345 100 L 30 100 Z M 30 12.214844 " clip-rule="nonzero"/></clipPath><clipPath id="47a5cba224"><path d="M 153 135.644531 L 294 135.644531 L 294 218 L 153 218 Z M 153 135.644531 " clip-rule="nonzero"/></clipPath><clipPath id="f33cd4ae32"><path d="M 69.015625 145.335938 L 301.128906 145.335938 L 301.128906 374.894531 L 69.015625 374.894531 Z M 69.015625 145.335938 " clip-rule="nonzero"/></clipPath><clipPath id="937128772f"><path d="M 302.148438 278.480469 L 305.933594 278.480469 L 305.933594 282.5625 L 302.148438 282.5625 Z M 302.148438 278.480469 " clip-rule="nonzero"/></clipPath></defs><g clip-path="url(#550b6347c6)"><g clip-path="url(#4c468c25f1)"><g clip-path="url(#69faa5509e)"><path fill="#76b5ac" d="M 73.53125 0.402344 L 129.765625 56.632812 L 73.53125 112.867188 L 17.296875 56.632812 Z M 73.53125 0.402344 " fill-opacity="1" fill-rule="nonzero"/></g></g></g><g clip-path="url(#9d225f26fc)"><g clip-path="url(#3946711e10)"><g clip-path="url(#27d87ddfd2)"><path fill="#76b5ac" d="M 148.941406 0.402344 L 205.171875 56.632812 L 148.941406 112.867188 L 92.707031 56.632812 Z M 148.941406 0.402344 " fill-opacity="1" fill-rule="nonzero"/></g></g></g><g clip-path="url(#4efd09617b)"><g clip-path="url(#a0973cf4e9)"><g clip-path="url(#ef78c09594)"><path fill="#76b5ac" d="M 224.351562 0.00390625 L 280.582031 56.238281 L 224.351562 112.46875 L 168.117188 56.238281 Z M 224.351562 0.00390625 " fill-opacity="1" fill-rule="nonzero"/></g></g></g><g clip-path="url(#e1cd06b660)"><g clip-path="url(#053bef4480)"><g clip-path="url(#ea52590386)"><path fill="#76b5ac" d="M 299.761719 0.00390625 L 355.992188 56.238281 L 299.761719 112.46875 L 243.527344 56.238281 Z M 299.761719 0.00390625 " fill-opacity="1" fill-rule="nonzero"/></g></g></g><g clip-path="url(#d0a8725ee9)"><path fill="#556b2f" d="M 341.007812 48.5625 L 308.339844 16.054688 C 304.257812 11.972656 297.503906 11.972656 293.265625 16.054688 L 262.953125 46.363281 L 232.800781 16.054688 C 228.71875 11.972656 221.964844 11.972656 217.722656 16.054688 L 187.414062 46.363281 L 157.101562 16.054688 C 153.019531 11.972656 146.265625 11.972656 142.027344 16.054688 L 111.875 46.363281 L 81.5625 16.054688 C 77.480469 11.972656 70.726562 11.972656 66.488281 16.054688 L 33.976562 48.5625 C 29.894531 52.648438 29.894531 59.398438 33.976562 63.640625 L 66.488281 96.148438 C 70.570312 100.230469 77.324219 100.230469 81.5625 96.148438 L 111.875 65.839844 L 142.183594 96.148438 C 146.265625 100.230469 153.019531 100.230469 157.261719 96.148438 L 187.570312 65.839844 L 217.722656 96.148438 C 221.808594 100.230469 228.558594 100.230469 232.800781 96.148438 L 263.109375 65.839844 L 293.421875 96.148438 C 297.503906 100.230469 304.257812 100.230469 308.496094 96.148438 L 341.007812 63.640625 C 345.089844 59.398438 345.089844 52.804688 341.007812 48.5625 Z M 341.007812 48.5625 " fill-opacity="1" fill-rule="nonzero"/></g><g fill="#ffd700" fill-opacity="1"><g transform="translate(55.768073, 73.955255)"><g><path d="M 35.484375 -5.640625 C 35.847656 -5.910156 36.046875 -6.019531 36.078125 -5.96875 C 36.109375 -5.925781 36.164062 -5.800781 36.25 -5.59375 C 36.28125 -5.59375 36.34375 -5.472656 36.4375 -5.234375 C 36.53125 -4.992188 36.648438 -4.675781 36.796875 -4.28125 C 36.941406 -3.894531 37.078125 -3.535156 37.203125 -3.203125 C 37.804688 -1.816406 38.109375 -1.09375 38.109375 -1.03125 C 38.109375 -0.976562 32.242188 -0.953125 20.515625 -0.953125 L 2.96875 -0.953125 L 2.53125 -3.0625 L 2.03125 -5.140625 L 18.484375 -5.1875 L 34.953125 -5.234375 Z M 33.046875 -19.796875 C 33.441406 -20.066406 33.640625 -20.203125 33.640625 -20.203125 C 33.671875 -20.203125 33.757812 -20.003906 33.90625 -19.609375 C 34.09375 -19.097656 34.425781 -18.242188 34.90625 -17.046875 C 35.445312 -15.722656 35.71875 -15.050781 35.71875 -15.03125 C 35.71875 -15.019531 30.648438 -15.015625 20.515625 -15.015625 L 5.28125 -15.015625 L 4.875 -16.953125 C 4.632812 -18.210938 4.5 -18.9375 4.46875 -19.125 L 4.46875 -19.34375 L 32.515625 -19.34375 Z M 34.140625 -32.734375 L 34.71875 -33.1875 L 34.8125 -33.015625 C 34.957031 -32.648438 35.617188 -31.039062 36.796875 -28.1875 C 36.828125 -28.15625 36.609375 -28.140625 36.140625 -28.140625 C 35.671875 -28.140625 34.804688 -28.128906 33.546875 -28.109375 C 32.285156 -28.097656 30.628906 -28.09375 28.578125 -28.09375 C 26.535156 -28.09375 23.863281 -28.09375 20.5625 -28.09375 L 4.234375 -28.09375 L 3.921875 -29.578125 C 3.859375 -29.847656 3.78125 -30.238281 3.6875 -30.75 C 3.601562 -31.257812 3.546875 -31.578125 3.515625 -31.703125 L 3.375 -32.28125 L 33.546875 -32.28125 Z M 34.140625 -32.734375 "/></g></g></g><g fill="#ffd700" fill-opacity="1"><g transform="translate(130.052456, 73.955255)"><g><path d="M 27.234375 -21.78125 C 27.023438 -21.8125 25.898438 -21.828125 23.859375 -21.828125 L 20.703125 -21.828125 L 20.703125 -20.65625 L 27.5 -20.65625 L 27.5 -21.1875 C 27.5 -21.4375 27.484375 -21.585938 27.453125 -21.640625 C 27.429688 -21.703125 27.359375 -21.75 27.234375 -21.78125 Z M 11.28125 -33.046875 C 11.28125 -33.648438 11.289062 -33.953125 11.3125 -33.953125 C 11.375 -33.953125 12.171875 -33.816406 13.703125 -33.546875 C 15.296875 -33.242188 16.09375 -33.09375 16.09375 -33.09375 C 16.125 -33.09375 16.140625 -32.929688 16.140625 -32.609375 L 16.1875 -32.109375 L 18.265625 -32.109375 C 19.617188 -32.078125 21.0625 -32.078125 22.59375 -32.109375 L 24.84375 -32.109375 L 24.84375 -33.046875 C 24.84375 -33.648438 24.859375 -33.953125 24.890625 -33.953125 C 24.953125 -33.953125 25.75 -33.816406 27.28125 -33.546875 L 29.578125 -33.046875 L 29.578125 -32.109375 L 36.078125 -32.109375 L 36.578125 -32.515625 L 37.109375 -32.921875 C 37.109375 -32.890625 37.394531 -32.226562 37.96875 -30.9375 L 38.78125 -28.953125 L 29.578125 -28.953125 L 29.578125 -27.546875 L 24.84375 -27.546875 L 24.84375 -28.1875 C 24.84375 -28.632812 24.800781 -28.875 24.71875 -28.90625 C 24.59375 -28.9375 23.132812 -28.953125 20.34375 -28.953125 L 16.140625 -28.953125 L 16.140625 -28.1875 L 16.09375 -27.46875 L 16.421875 -27.375 C 16.929688 -27.21875 18.222656 -26.914062 20.296875 -26.46875 L 20.703125 -26.375 L 20.703125 -24.984375 L 27.5 -24.984375 L 27.5 -26.109375 C 27.5 -26.828125 27.546875 -27.1875 27.640625 -27.1875 C 27.671875 -27.1875 28.421875 -27.035156 29.890625 -26.734375 L 32.0625 -26.25 L 32.0625 -24.984375 L 35.84375 -24.984375 L 36.296875 -25.34375 C 36.628906 -25.582031 36.828125 -25.6875 36.890625 -25.65625 C 36.921875 -25.65625 37.195312 -25.046875 37.71875 -23.828125 C 38.25 -22.609375 38.515625 -21.957031 38.515625 -21.875 C 38.515625 -21.78125 37.429688 -21.734375 35.265625 -21.734375 L 32.0625 -21.734375 L 32.0625 -17.59375 L 29.765625 -17.59375 C 28.679688 -17.59375 28.03125 -17.597656 27.8125 -17.609375 C 27.601562 -17.617188 27.492188 -17.671875 27.484375 -17.765625 C 27.472656 -17.859375 27.238281 -17.910156 26.78125 -17.921875 C 26.332031 -17.941406 24.859375 -17.953125 22.359375 -17.953125 C 22.210938 -17.953125 22.003906 -17.953125 21.734375 -17.953125 C 19.390625 -17.953125 17.988281 -17.972656 17.53125 -18.015625 C 17.082031 -18.054688 16.738281 -18.210938 16.5 -18.484375 C 16.46875 -18.515625 16.441406 -18.546875 16.421875 -18.578125 C 16.234375 -18.785156 16.109375 -19.023438 16.046875 -19.296875 C 15.992188 -19.566406 15.96875 -20.019531 15.96875 -20.65625 L 15.96875 -21.734375 L 11.1875 -21.734375 L 11.1875 -16.8125 L 22.90625 -16.859375 C 30.664062 -16.859375 34.785156 -16.859375 35.265625 -16.859375 L 35.9375 -16.78125 L 35.9375 -13.703125 L 28.453125 -13.703125 C 23.046875 -13.703125 20.128906 -13.703125 19.703125 -13.703125 C 18.828125 -13.703125 18.378906 -13.675781 18.359375 -13.625 C 18.359375 -13.625 18.367188 -13.609375 18.390625 -13.578125 C 18.421875 -13.546875 18.539062 -13.515625 18.75 -13.484375 C 18.96875 -13.453125 19.234375 -13.40625 19.546875 -13.34375 C 19.859375 -13.28125 20.332031 -13.207031 20.96875 -13.125 C 21.988281 -12.945312 22.515625 -12.832031 22.546875 -12.78125 C 22.578125 -12.738281 22.59375 -12.640625 22.59375 -12.484375 C 22.59375 -12.460938 22.597656 -12.410156 22.609375 -12.328125 C 22.628906 -12.253906 22.640625 -12.191406 22.640625 -12.140625 C 22.640625 -12.097656 22.640625 -12.066406 22.640625 -12.046875 C 22.640625 -11.953125 22.921875 -11.894531 23.484375 -11.875 C 24.054688 -11.863281 26.046875 -11.859375 29.453125 -11.859375 L 36.171875 -11.859375 L 36.609375 -12.171875 L 37.109375 -12.484375 L 37.203125 -12.171875 C 38.285156 -9.648438 38.859375 -8.296875 38.921875 -8.109375 C 38.921875 -8.085938 38.617188 -8.066406 38.015625 -8.046875 C 37.410156 -8.035156 36.476562 -8.03125 35.21875 -8.03125 C 33.414062 -8.03125 31.640625 -8.015625 29.890625 -7.984375 L 28.3125 -7.984375 L 29.265625 -7.671875 C 31.972656 -6.765625 35.113281 -5.953125 38.6875 -5.234375 C 39.132812 -5.140625 39.359375 -5.0625 39.359375 -5 C 39.359375 -4.945312 39.179688 -4.664062 38.828125 -4.15625 C 36.960938 -1.59375 36.015625 -0.3125 35.984375 -0.3125 C 35.953125 -0.3125 35.515625 -0.460938 34.671875 -0.765625 C 33.835938 -1.066406 33.285156 -1.273438 33.015625 -1.390625 C 31.535156 -1.960938 29.9375 -2.828125 28.21875 -3.984375 C 26.507812 -5.148438 25.128906 -6.300781 24.078125 -7.4375 C 23.773438 -7.738281 23.578125 -7.921875 23.484375 -7.984375 C 23.398438 -8.046875 23.269531 -8.078125 23.09375 -8.078125 L 22.6875 -8.03125 L 22.640625 -4.15625 L 22.640625 -0.21875 L 18 -0.21875 L 18 -7.671875 L 17.140625 -6.859375 C 15.816406 -5.585938 14.140625 -4.410156 12.109375 -3.328125 C 10.078125 -2.253906 8.097656 -1.488281 6.171875 -1.03125 C 4.191406 -0.550781 2.765625 -0.3125 1.890625 -0.3125 C 1.773438 -0.3125 1.757812 -0.359375 1.84375 -0.453125 C 1.875 -0.484375 1.921875 -0.515625 1.984375 -0.546875 C 3.515625 -1.804688 6.445312 -4.101562 10.78125 -7.4375 C 11.226562 -7.769531 11.453125 -7.953125 11.453125 -7.984375 C 11.453125 -8.015625 10.398438 -8.03125 8.296875 -8.03125 C 6.285156 -8.03125 4.828125 -8.046875 3.921875 -8.078125 L 2.703125 -8.109375 L 2.296875 -9.78125 C 2.234375 -10.050781 2.171875 -10.335938 2.109375 -10.640625 C 2.054688 -10.941406 2.003906 -11.179688 1.953125 -11.359375 C 1.910156 -11.546875 1.890625 -11.648438 1.890625 -11.671875 L 1.84375 -11.859375 L 18 -11.859375 L 18 -12.8125 L 17.953125 -13.65625 L 12.265625 -13.625 L 6.53125 -13.625 L 6.53125 -21.734375 L 2.96875 -21.734375 L 2.890625 -22 C 2.890625 -22 2.875 -22.082031 2.84375 -22.25 C 2.8125 -22.414062 2.769531 -22.609375 2.71875 -22.828125 C 2.675781 -23.054688 2.628906 -23.28125 2.578125 -23.5 C 2.390625 -24.332031 2.296875 -24.78125 2.296875 -24.84375 C 2.296875 -24.9375 3.003906 -24.984375 4.421875 -24.984375 L 6.53125 -24.984375 L 6.53125 -27.28125 L 6.765625 -27.234375 C 6.878906 -27.203125 7.617188 -27.050781 8.984375 -26.78125 C 10.359375 -26.507812 11.066406 -26.375 11.109375 -26.375 C 11.160156 -26.375 11.1875 -26.148438 11.1875 -25.703125 L 11.1875 -24.984375 L 15.96875 -24.984375 L 15.96875 -27.46875 L 15.5625 -27.5 C 15.34375 -27.53125 14.5625 -27.546875 13.21875 -27.546875 L 11.28125 -27.5 L 11.28125 -28.953125 L 6.90625 -28.953125 C 4.707031 -28.921875 3.421875 -28.910156 3.046875 -28.921875 C 2.671875 -28.941406 2.46875 -28.992188 2.4375 -29.078125 C 2.34375 -29.410156 2.210938 -29.972656 2.046875 -30.765625 C 1.878906 -31.566406 1.796875 -31.984375 1.796875 -32.015625 C 1.828125 -32.046875 3.40625 -32.0625 6.53125 -32.0625 L 11.234375 -32.0625 Z M 11.28125 -33.046875 "/></g></g></g><g fill="#ffd700" fill-opacity="1"><g transform="translate(204.336839, 73.955255)"><g><path d="M 27.640625 -11.453125 L 27.640625 -11.859375 L 12.484375 -11.859375 L 12.484375 -11.09375 L 27.640625 -11.09375 Z M 27.46875 -14.65625 C 27.28125 -14.6875 24.753906 -14.703125 19.890625 -14.703125 L 12.484375 -14.703125 L 12.484375 -13.703125 L 13.34375 -13.65625 C 13.851562 -13.632812 15 -13.632812 16.78125 -13.65625 C 18.21875 -13.65625 20.46875 -13.671875 23.53125 -13.703125 L 27.640625 -13.703125 L 27.640625 -14.15625 C 27.640625 -14.425781 27.582031 -14.59375 27.46875 -14.65625 Z M 23.578125 -19.65625 C 23.035156 -20.082031 22.523438 -20.503906 22.046875 -20.921875 L 21.421875 -21.5625 L 20.78125 -21.0625 C 19.21875 -19.882812 17.296875 -18.738281 15.015625 -17.625 L 13.53125 -16.859375 L 16.59375 -16.859375 C 18.488281 -16.859375 19.453125 -16.90625 19.484375 -17 C 19.484375 -17.0625 19.316406 -17.285156 18.984375 -17.671875 C 18.648438 -18.003906 18.410156 -18.257812 18.265625 -18.4375 L 18.03125 -18.765625 L 18.71875 -18.9375 C 19.738281 -19.300781 20.6875 -19.378906 21.5625 -19.171875 C 22.007812 -19.078125 22.488281 -18.882812 23 -18.59375 C 23.507812 -18.3125 23.765625 -18.097656 23.765625 -17.953125 C 23.765625 -17.890625 23.566406 -17.722656 23.171875 -17.453125 C 22.847656 -17.210938 22.625 -17.046875 22.5 -16.953125 C 22.5 -16.921875 22.617188 -16.894531 22.859375 -16.875 C 23.097656 -16.863281 23.453125 -16.859375 23.921875 -16.859375 C 24.390625 -16.859375 24.878906 -16.859375 25.390625 -16.859375 L 28.40625 -16.859375 L 27.234375 -17.453125 C 25.765625 -18.234375 24.546875 -18.96875 23.578125 -19.65625 Z M 18.171875 -24.21875 C 18.585938 -24.550781 18.8125 -24.71875 18.84375 -24.71875 C 18.9375 -24.71875 19.804688 -24.550781 21.453125 -24.21875 C 23.109375 -23.882812 23.9375 -23.703125 23.9375 -23.671875 C 23.9375 -23.609375 23.695312 -23.382812 23.21875 -23 C 22.738281 -22.632812 22.484375 -22.421875 22.453125 -22.359375 C 22.453125 -22.335938 22.6875 -22.226562 23.15625 -22.03125 C 23.625 -21.832031 24.21875 -21.601562 24.9375 -21.34375 C 25.65625 -21.09375 26.316406 -20.878906 26.921875 -20.703125 C 28.335938 -20.273438 31.03125 -19.734375 35 -19.078125 C 37.726562 -18.648438 39.097656 -18.421875 39.109375 -18.390625 C 39.128906 -18.367188 38.941406 -17.765625 38.546875 -16.578125 C 38.160156 -15.390625 37.863281 -14.507812 37.65625 -13.9375 L 37.515625 -13.53125 L 36.4375 -13.84375 C 35.75 -14.082031 34.9375 -14.351562 34 -14.65625 C 33.007812 -14.957031 32.5 -15.109375 32.46875 -15.109375 C 32.4375 -15.109375 32.421875 -14.097656 32.421875 -12.078125 L 32.421875 -9.0625 L 33.328125 -8.609375 C 33.953125 -8.273438 34.265625 -8.082031 34.265625 -8.03125 C 34.265625 -7.96875 33.957031 -7.640625 33.34375 -7.046875 C 32.726562 -6.460938 32.316406 -6.113281 32.109375 -6 C 31.628906 -5.726562 31.507812 -5.59375 31.75 -5.59375 C 32.070312 -5.59375 33.289062 -5.097656 35.40625 -4.109375 L 36.53125 -3.5625 L 36.25 -3.203125 C 36.21875 -3.109375 35.738281 -2.492188 34.8125 -1.359375 L 33.734375 0.09375 L 33.375 -0.046875 C 33.3125 -0.078125 31.988281 -0.722656 29.40625 -1.984375 C 26.300781 -3.546875 23.234375 -4.957031 20.203125 -6.21875 L 18.671875 -6.90625 L 19.03125 -6.9375 C 19.988281 -7.125 21.320312 -7.1875 23.03125 -7.125 C 24.75 -7.0625 26.210938 -6.925781 27.421875 -6.71875 C 27.503906 -6.6875 27.613281 -6.660156 27.75 -6.640625 C 27.882812 -6.628906 27.984375 -6.613281 28.046875 -6.59375 C 28.109375 -6.582031 28.140625 -6.578125 28.140625 -6.578125 C 28.171875 -6.578125 28.328125 -6.796875 28.609375 -7.234375 C 28.898438 -7.671875 29.046875 -7.90625 29.046875 -7.9375 C 29.046875 -7.96875 28.816406 -7.984375 28.359375 -7.984375 L 27.640625 -7.9375 L 27.640625 -8.4375 L 12.484375 -8.4375 L 12.484375 -5.359375 L 13.75 -5.40625 C 14.65625 -5.4375 15.484375 -5.484375 16.234375 -5.546875 C 17.015625 -5.578125 17.613281 -5.59375 18.03125 -5.59375 C 18.457031 -5.59375 18.671875 -5.578125 18.671875 -5.546875 C 18.671875 -5.484375 18.535156 -5.269531 18.265625 -4.90625 C 17.992188 -4.550781 17.738281 -4.253906 17.5 -4.015625 C 16.238281 -2.753906 14.222656 -1.773438 11.453125 -1.078125 C 10.847656 -0.929688 10.054688 -0.765625 9.078125 -0.578125 C 8.109375 -0.398438 7.597656 -0.332031 7.546875 -0.375 C 7.503906 -0.425781 7.410156 -0.914062 7.265625 -1.84375 C 7.109375 -2.65625 6.972656 -3.425781 6.859375 -4.15625 C 6.734375 -4.75 6.6875 -5.0625 6.71875 -5.09375 C 6.78125 -5.125 6.976562 -5.15625 7.3125 -5.1875 L 7.84375 -5.1875 L 7.84375 -14.921875 L 7.125 -14.796875 C 6.757812 -14.703125 6.175781 -14.59375 5.375 -14.46875 C 4.582031 -14.351562 3.851562 -14.253906 3.1875 -14.171875 C 2.53125 -14.097656 2.203125 -14.078125 2.203125 -14.109375 C 2.203125 -14.140625 2.910156 -14.488281 4.328125 -15.15625 C 6.285156 -16.144531 8.117188 -17.164062 9.828125 -18.21875 C 13.347656 -20.382812 16.128906 -22.382812 18.171875 -24.21875 Z M 33.828125 -33.453125 C 33.941406 -33.722656 34.03125 -33.859375 34.09375 -33.859375 C 34.15625 -33.859375 35.003906 -33.570312 36.640625 -33 C 38.273438 -32.4375 39.09375 -32.140625 39.09375 -32.109375 C 39.09375 -32.078125 38.972656 -31.988281 38.734375 -31.84375 C 38.046875 -31.320312 37.382812 -30.660156 36.75 -29.859375 C 35.875 -28.617188 35.078125 -27.65625 34.359375 -26.96875 L 34.09375 -26.734375 L 35.078125 -26.25 C 35.773438 -25.882812 36.363281 -25.519531 36.84375 -25.15625 C 38.007812 -24.375 38.640625 -23.878906 38.734375 -23.671875 C 38.734375 -23.640625 38.519531 -23.4375 38.09375 -23.0625 C 37.675781 -22.6875 36.925781 -22.050781 35.84375 -21.15625 L 35.078125 -20.515625 L 34.046875 -21.5625 C 33.265625 -22.28125 32.554688 -22.910156 31.921875 -23.453125 L 30.890625 -24.3125 L 29.53125 -23.625 C 28.71875 -23.207031 28 -22.894531 27.375 -22.6875 C 26.976562 -22.5625 26.457031 -22.429688 25.8125 -22.296875 C 25.164062 -22.160156 24.785156 -22.09375 24.671875 -22.09375 C 24.578125 -22.125 24.90625 -22.457031 25.65625 -23.09375 C 25.6875 -23.125 25.71875 -23.148438 25.75 -23.171875 C 26.5 -23.804688 27.164062 -24.414062 27.75 -25 C 28.34375 -25.59375 28.625 -25.929688 28.59375 -26.015625 C 28.5625 -26.171875 27.734375 -26.773438 26.109375 -27.828125 C 25.054688 -28.515625 24.515625 -28.875 24.484375 -28.90625 C 24.453125 -28.9375 24.523438 -28.953125 24.703125 -28.953125 C 24.890625 -28.953125 25.117188 -28.941406 25.390625 -28.921875 C 25.660156 -28.910156 25.953125 -28.894531 26.265625 -28.875 C 26.578125 -28.863281 26.867188 -28.84375 27.140625 -28.8125 C 27.410156 -28.78125 27.640625 -28.75 27.828125 -28.71875 C 28.390625 -28.632812 28.972656 -28.515625 29.578125 -28.359375 L 30.484375 -28.1875 L 30.75 -28.546875 C 31.5 -29.472656 31.875 -30 31.875 -30.125 C 31.875 -30.15625 30.535156 -30.171875 27.859375 -30.171875 C 25.191406 -30.171875 23.84375 -30.226562 23.8125 -30.34375 C 23.78125 -30.4375 23.6875 -30.878906 23.53125 -31.671875 C 23.382812 -32.472656 23.3125 -32.894531 23.3125 -32.9375 C 23.3125 -32.988281 25.039062 -33.015625 28.5 -33.015625 L 33.640625 -33.015625 Z M 10.28125 -34.21875 L 12.359375 -34.21875 C 13.710938 -34.21875 14.492188 -34.207031 14.703125 -34.1875 C 14.816406 -34.15625 14.890625 -34.113281 14.921875 -34.0625 C 14.953125 -34.019531 14.953125 -33.925781 14.921875 -33.78125 C 14.890625 -33.5625 14.890625 -33.378906 14.921875 -33.234375 L 14.96875 -33.015625 L 17.5 -33.015625 C 19.207031 -33.015625 20.15625 -33.070312 20.34375 -33.1875 C 20.519531 -33.3125 20.625 -33.375 20.65625 -33.375 C 20.65625 -33.34375 20.941406 -32.585938 21.515625 -31.109375 C 21.546875 -31.078125 21.503906 -31.054688 21.390625 -31.046875 C 21.285156 -31.035156 21.113281 -31.019531 20.875 -31 C 20.632812 -30.988281 20.3125 -30.984375 19.90625 -30.984375 C 19.5 -30.984375 18.953125 -30.984375 18.265625 -30.984375 C 16.035156 -30.953125 14.910156 -30.882812 14.890625 -30.78125 C 14.878906 -30.675781 14.890625 -30.546875 14.921875 -30.390625 C 14.953125 -30.273438 15.007812 -30.207031 15.09375 -30.1875 C 15.1875 -30.175781 15.460938 -30.171875 15.921875 -30.171875 L 16.953125 -30.171875 L 17.265625 -30.53125 L 17.59375 -30.890625 L 18.078125 -30.53125 C 18.535156 -30.226562 19.25 -29.707031 20.21875 -28.96875 C 21.195312 -28.238281 21.6875 -27.84375 21.6875 -27.78125 C 21.71875 -27.6875 21.582031 -27.625 21.28125 -27.59375 C 20.5 -27.507812 19.851562 -27.148438 19.34375 -26.515625 C 16.457031 -23.148438 13.332031 -20.878906 9.96875 -19.703125 C 7.800781 -18.984375 5.617188 -18.519531 3.421875 -18.3125 C 2.160156 -18.1875 1.515625 -18.15625 1.484375 -18.21875 C 1.484375 -18.25 1.632812 -18.335938 1.9375 -18.484375 C 5.394531 -20.347656 7.5625 -21.640625 8.4375 -22.359375 L 8.609375 -22.5 L 8.296875 -23 C 8.234375 -23.09375 7.84375 -23.707031 7.125 -24.84375 L 6.21875 -26.203125 L 6.453125 -26.25 C 6.597656 -26.28125 6.976562 -26.269531 7.59375 -26.21875 C 8.207031 -26.175781 8.742188 -26.09375 9.203125 -25.96875 C 10.097656 -25.726562 10.757812 -25.414062 11.1875 -25.03125 C 11.363281 -24.875 11.484375 -24.8125 11.546875 -24.84375 C 11.660156 -24.90625 11.972656 -25.15625 12.484375 -25.59375 C 12.992188 -26.03125 13.34375 -26.351562 13.53125 -26.5625 L 13.84375 -26.921875 L 6.71875 -26.921875 L 6.171875 -26.421875 C 5.691406 -26.066406 5.226562 -25.738281 4.78125 -25.4375 C 4.414062 -25.164062 3.875 -24.84375 3.15625 -24.46875 C 2.4375 -24.09375 2.03125 -23.914062 1.9375 -23.9375 C 1.875 -23.96875 2.367188 -25.320312 3.421875 -28 L 5 -32.015625 L 6.9375 -31.390625 C 8.050781 -30.992188 8.773438 -30.738281 9.109375 -30.625 L 9.328125 -30.53125 L 9.15625 -30.265625 C 9.03125 -30.078125 8.96875 -29.960938 8.96875 -29.921875 C 8.96875 -29.878906 9.160156 -29.859375 9.546875 -29.859375 C 9.941406 -29.859375 10.171875 -29.898438 10.234375 -29.984375 C 10.265625 -30.078125 10.28125 -30.800781 10.28125 -32.15625 Z M 10.28125 -34.21875 "/></g></g></g><g fill="#ffd700" fill-opacity="1"><g transform="translate(278.621233, 73.955255)"><g><path d="M 24.390625 -8.96875 C 24.421875 -9.15625 24.46875 -9.25 24.53125 -9.25 C 24.707031 -9.25 25.375 -9.101562 26.53125 -8.8125 C 27.695312 -8.53125 28.289062 -8.375 28.3125 -8.34375 C 28.375 -8.25 28.40625 -8.082031 28.40625 -7.84375 C 28.375 -7.601562 28.375 -6.925781 28.40625 -5.8125 L 28.40625 -4.109375 L 34.546875 -4.109375 L 34.546875 -0.671875 L 31.515625 -0.671875 C 28.273438 -0.640625 26.441406 -0.671875 26.015625 -0.765625 C 25.773438 -0.828125 25.523438 -0.984375 25.265625 -1.234375 C 25.015625 -1.492188 24.816406 -1.757812 24.671875 -2.03125 L 24.4375 -2.53125 L 24.390625 -5.59375 C 24.359375 -7.632812 24.359375 -8.757812 24.390625 -8.96875 Z M 34 -9.328125 C 33.96875 -9.484375 33.984375 -9.5625 34.046875 -9.5625 C 34.109375 -9.5625 34.394531 -9.398438 34.90625 -9.078125 C 35.414062 -8.765625 35.820312 -8.488281 36.125 -8.25 C 36.695312 -7.800781 37.28125 -7.238281 37.875 -6.5625 C 38.476562 -5.882812 38.914062 -5.273438 39.1875 -4.734375 C 39.695312 -3.742188 39.890625 -3.1875 39.765625 -3.0625 C 39.710938 -2.976562 39.097656 -2.6875 37.921875 -2.1875 C 36.753906 -1.6875 36.171875 -1.453125 36.171875 -1.484375 C 36.140625 -1.515625 35.925781 -2.207031 35.53125 -3.5625 C 35.414062 -3.976562 35.226562 -4.664062 34.96875 -5.625 C 34.71875 -6.59375 34.5625 -7.164062 34.5 -7.34375 C 34.257812 -8.375 34.09375 -9.035156 34 -9.328125 Z M 34.1875 -20.203125 C 34.125 -20.296875 33.941406 -20.34375 33.640625 -20.34375 L 33.140625 -20.34375 L 33.140625 -18.84375 C 33.140625 -18.519531 33.140625 -18.265625 33.140625 -18.078125 C 33.140625 -17.898438 33.144531 -17.757812 33.15625 -17.65625 C 33.175781 -17.550781 33.191406 -17.484375 33.203125 -17.453125 C 33.222656 -17.421875 33.25 -17.421875 33.28125 -17.453125 C 33.394531 -17.484375 33.578125 -17.5 33.828125 -17.5 L 34.21875 -17.5 L 34.21875 -18.765625 C 34.21875 -19.597656 34.207031 -20.078125 34.1875 -20.203125 Z M 30.34375 -18.890625 L 30.34375 -20.34375 L 29.171875 -20.34375 L 29.171875 -17.5 L 30.34375 -17.5 Z M 26.109375 -18.890625 L 26.109375 -20.34375 L 25.296875 -20.34375 L 25.296875 -17.5 L 26.109375 -17.5 Z M 27.546875 -27.640625 C 27.515625 -28.148438 27.53125 -28.40625 27.59375 -28.40625 C 27.75 -28.40625 28.9375 -28.09375 31.15625 -27.46875 C 31.425781 -27.375 31.59375 -27.300781 31.65625 -27.25 C 31.71875 -27.207031 31.75 -27.128906 31.75 -27.015625 L 31.75 -26.734375 L 35.9375 -26.734375 L 36.484375 -27.1875 L 37.0625 -27.640625 L 37.25 -27.28125 C 38.09375 -25.414062 38.515625 -24.425781 38.515625 -24.3125 C 38.515625 -24.25 37.382812 -24.21875 35.125 -24.21875 L 31.75 -24.21875 L 31.75 -23.765625 C 31.75 -23.429688 31.78125 -23.234375 31.84375 -23.171875 C 31.863281 -23.085938 32.3125 -23.046875 33.1875 -23.046875 L 34.5 -23 L 35.3125 -23.578125 L 36.078125 -24.125 L 36.9375 -23.3125 C 37.382812 -22.894531 37.800781 -22.488281 38.1875 -22.09375 L 38.640625 -21.640625 L 38.328125 -21.375 L 38.0625 -21.109375 L 38.0625 -17.625 C 38.0625 -15.882812 38.0625 -14.867188 38.0625 -14.578125 C 38.0625 -14.296875 38.015625 -14.15625 37.921875 -14.15625 C 37.804688 -14.15625 37.75 -14.113281 37.75 -14.03125 C 37.75 -13.96875 37.910156 -13.453125 38.234375 -12.484375 C 38.566406 -11.523438 38.796875 -10.910156 38.921875 -10.640625 C 38.953125 -10.578125 38.90625 -10.53125 38.78125 -10.5 C 38.539062 -10.476562 36.945312 -10.46875 34 -10.46875 C 30.875 -10.46875 29.3125 -10.4375 29.3125 -10.375 C 29.3125 -10.375 29.34375 -10.359375 29.40625 -10.328125 C 30.394531 -10.054688 31.398438 -9.410156 32.421875 -8.390625 C 32.628906 -8.117188 32.921875 -7.738281 33.296875 -7.25 C 33.671875 -6.769531 33.859375 -6.488281 33.859375 -6.40625 C 33.859375 -6.40625 33.3125 -6.132812 32.21875 -5.59375 C 31.125 -5.050781 30.5 -4.734375 30.34375 -4.640625 C 30.289062 -4.640625 30.265625 -4.671875 30.265625 -4.734375 C 30.265625 -4.828125 29.992188 -5.613281 29.453125 -7.09375 C 28.910156 -8.582031 28.53125 -9.570312 28.3125 -10.0625 L 28.140625 -10.46875 L 24.796875 -10.46875 C 22.546875 -10.46875 21.40625 -10.492188 21.375 -10.546875 C 21.34375 -10.578125 21.242188 -11.019531 21.078125 -11.875 C 20.910156 -12.738281 20.828125 -13.210938 20.828125 -13.296875 C 20.828125 -13.390625 23.472656 -13.4375 28.765625 -13.4375 L 36.75 -13.4375 L 37.109375 -13.703125 C 37.347656 -13.921875 37.46875 -14.050781 37.46875 -14.09375 C 37.46875 -14.132812 36.925781 -14.15625 35.84375 -14.15625 L 34.1875 -14.15625 L 34.21875 -14.46875 L 34.21875 -14.796875 L 25.296875 -14.796875 L 25.296875 -14.5625 L 25.25 -14.296875 L 23.40625 -14.296875 C 22.144531 -14.296875 21.515625 -14.3125 21.515625 -14.34375 C 21.484375 -14.488281 21.46875 -15.992188 21.46875 -18.859375 C 21.46875 -21.734375 21.484375 -23.234375 21.515625 -23.359375 C 21.515625 -23.503906 21.570312 -23.5625 21.6875 -23.53125 C 21.75 -23.507812 22.082031 -23.421875 22.6875 -23.265625 C 23.226562 -23.117188 24.171875 -23.046875 25.515625 -23.046875 L 27.5 -23 L 27.5 -23.265625 C 27.53125 -23.503906 27.53125 -23.742188 27.5 -23.984375 L 27.5 -24.21875 L 21.5625 -24.21875 L 21.28125 -25.484375 L 21.0625 -26.703125 L 24.3125 -26.734375 L 27.546875 -26.78125 Z M 15.875 -17.40625 L 15.875 -18.03125 L 14.703125 -18.03125 C 13.921875 -18.007812 13.515625 -17.984375 13.484375 -17.953125 C 13.453125 -17.921875 13.4375 -17.722656 13.4375 -17.359375 L 13.4375 -16.8125 L 15.875 -16.8125 Z M 15.875 -20.75 L 15.875 -21.46875 L 13.4375 -21.46875 L 13.484375 -20.78125 L 13.484375 -20.109375 L 14.703125 -20.0625 L 15.875 -20.0625 Z M 15.875 -24.265625 L 15.875 -24.890625 L 14.703125 -24.890625 C 13.921875 -24.890625 13.515625 -24.851562 13.484375 -24.78125 C 13.453125 -24.707031 13.4375 -24.503906 13.4375 -24.171875 L 13.484375 -23.625 L 14.703125 -23.578125 L 15.875 -23.578125 Z M 19.84375 -34.09375 C 20.625 -34.15625 21.460938 -34.117188 22.359375 -33.984375 C 23.265625 -33.847656 24.035156 -33.628906 24.671875 -33.328125 C 24.847656 -33.203125 25.128906 -33.007812 25.515625 -32.75 C 25.910156 -32.5 26.109375 -32.359375 26.109375 -32.328125 C 26.109375 -32.296875 25.882812 -32.144531 25.4375 -31.875 L 24.75 -31.515625 L 36.484375 -31.515625 L 36.890625 -31.84375 C 37.191406 -32.019531 37.351562 -32.09375 37.375 -32.0625 C 37.4375 -31.96875 37.632812 -31.515625 37.96875 -30.703125 C 38.300781 -29.835938 38.5 -29.34375 38.5625 -29.21875 C 38.644531 -29.039062 38.703125 -28.90625 38.734375 -28.8125 L 38.78125 -28.59375 L 7.796875 -28.59375 L 7.796875 -16.8125 L 9.203125 -16.8125 L 9.203125 -24.890625 L 8.890625 -24.890625 C 8.671875 -24.890625 8.546875 -24.96875 8.515625 -25.125 C 8.242188 -26.320312 8.109375 -27.054688 8.109375 -27.328125 C 8.109375 -27.421875 9.71875 -27.46875 12.9375 -27.46875 L 17.71875 -27.46875 L 18.078125 -27.734375 C 18.265625 -27.847656 18.460938 -27.984375 18.671875 -28.140625 L 18.984375 -28.3125 L 19.890625 -26.828125 C 20.546875 -25.773438 20.800781 -25.234375 20.65625 -25.203125 C 20.625 -25.171875 20.5625 -25.15625 20.46875 -25.15625 C 20.351562 -25.15625 20.265625 -25.113281 20.203125 -25.03125 C 20.140625 -24.96875 20.109375 -21.40625 20.109375 -14.34375 L 20.15625 -3.703125 L 21.28125 -6.578125 C 22.03125 -8.472656 22.421875 -9.4375 22.453125 -9.46875 C 22.484375 -9.46875 22.679688 -9.4375 23.046875 -9.375 L 23.5 -9.328125 L 23.625 -8.84375 C 23.71875 -8.445312 23.769531 -7.789062 23.78125 -6.875 C 23.800781 -5.957031 23.765625 -5.242188 23.671875 -4.734375 C 23.460938 -3.472656 23.101562 -2.390625 22.59375 -1.484375 L 22.234375 -0.8125 L 21.1875 -1.3125 C 20.5625 -1.664062 20.234375 -1.84375 20.203125 -1.84375 C 20.140625 -1.84375 20.109375 -1.570312 20.109375 -1.03125 L 20.109375 -0.21875 L 15.875 -0.21875 L 15.875 -5 L 15.328125 -4.421875 C 14.847656 -3.941406 14.164062 -3.445312 13.28125 -2.9375 C 12.394531 -2.425781 11.546875 -2.035156 10.734375 -1.765625 C 9.203125 -1.191406 8.390625 -0.976562 8.296875 -1.125 C 8.148438 -1.28125 7.726562 -2.289062 7.03125 -4.15625 C 7 -4.175781 7.019531 -4.203125 7.09375 -4.234375 C 7.175781 -4.265625 7.320312 -4.296875 7.53125 -4.328125 C 8.882812 -4.472656 9.664062 -4.5625 9.875 -4.59375 C 9.9375 -4.625 9.96875 -4.957031 9.96875 -5.59375 L 9.96875 -6.5 L 9.25 -6.5 C 8.882812 -6.5 8.664062 -6.503906 8.59375 -6.515625 C 8.519531 -6.523438 8.46875 -6.59375 8.4375 -6.71875 C 8.40625 -6.84375 8.3125 -7.203125 8.15625 -7.796875 L 7.984375 -8.703125 L 9.96875 -8.703125 L 9.96875 -10.46875 L 8.4375 -10.46875 L 8.203125 -11.453125 C 8.054688 -12.171875 7.984375 -12.546875 7.984375 -12.578125 C 8.015625 -12.609375 9.003906 -12.625 10.953125 -12.625 L 13.890625 -12.625 L 14.203125 -12.859375 C 14.378906 -12.972656 14.5 -13.015625 14.5625 -12.984375 C 14.59375 -12.921875 14.75 -12.515625 15.03125 -11.765625 C 15.320312 -11.015625 15.46875 -10.609375 15.46875 -10.546875 C 15.46875 -10.492188 15.179688 -10.46875 14.609375 -10.46875 L 13.75 -10.46875 L 13.75 -8.703125 L 15.28125 -8.703125 L 15.28125 -7.625 L 15.234375 -6.53125 L 14.515625 -6.5 L 13.75 -6.5 L 13.75 -5.1875 L 14.0625 -5.234375 C 14.3125 -5.265625 14.675781 -5.304688 15.15625 -5.359375 L 15.875 -5.5 L 15.875 -14.15625 L 7.71875 -14.15625 L 7.71875 -13.484375 C 7.71875 -12.546875 7.582031 -11.390625 7.3125 -10.015625 C 6.976562 -8.421875 6.421875 -6.851562 5.640625 -5.3125 C 4.859375 -3.78125 3.984375 -2.535156 3.015625 -1.578125 C 2.628906 -1.179688 2.238281 -0.816406 1.84375 -0.484375 C 1.457031 -0.160156 1.25 -0.03125 1.21875 -0.09375 C 1.1875 -0.09375 1.289062 -0.539062 1.53125 -1.4375 C 2.34375 -4.414062 2.867188 -8.28125 3.109375 -13.03125 C 3.171875 -14.289062 3.203125 -17.75 3.203125 -23.40625 C 3.203125 -29.207031 3.21875 -32.125 3.25 -32.15625 C 3.3125 -32.15625 3.789062 -32.0625 4.6875 -31.875 L 6.09375 -31.515625 L 12.53125 -31.515625 C 16.832031 -31.515625 18.984375 -31.535156 18.984375 -31.578125 C 18.984375 -31.628906 18.703125 -31.929688 18.140625 -32.484375 C 17.585938 -33.046875 17.3125 -33.34375 17.3125 -33.375 C 17.3125 -33.457031 17.617188 -33.582031 18.234375 -33.75 C 18.859375 -33.914062 19.394531 -34.03125 19.84375 -34.09375 Z M 19.84375 -34.09375 "/></g></g></g><g clip-path="url(#47a5cba224)"><path fill="#ffd700" d="M 164.269531 140.992188 L 166.421875 140.578125 C 173.710938 139.183594 181.207031 138.472656 188.707031 138.472656 C 199.039062 138.472656 209.28125 139.820312 219.15625 142.476562 C 228.363281 144.953125 237.214844 148.59375 245.515625 153.246094 C 240.078125 152.511719 233.523438 153.886719 229.394531 156.777344 C 226.242188 158.984375 224.339844 163.074219 224.339844 167.566406 C 224.339844 167.792969 224.34375 168.019531 224.355469 168.246094 C 224.550781 172.816406 226.914062 181.667969 240.578125 189.597656 C 252.3125 196.414062 257.6875 204.851562 260.128906 210.726562 C 260.753906 212.238281 261.234375 213.640625 261.617188 214.765625 C 262.3125 216.808594 262.5 217.355469 263.046875 217.289062 C 263.140625 217.277344 263.316406 217.230469 263.441406 217.019531 C 263.832031 216.363281 263.546875 213.203125 262.347656 210.195312 C 259.867188 203.960938 254.269531 194.996094 241.6875 187.691406 C 228.933594 180.289062 226.734375 172.269531 226.558594 168.152344 C 226.386719 164.136719 227.960938 160.472656 230.660156 158.582031 C 234.324219 156.019531 241.527344 154.285156 247.238281 155.828125 C 250.300781 156.65625 252.496094 158.339844 253.585938 160.707031 C 255.015625 163.808594 255.085938 166.242188 253.777344 167.386719 C 253.042969 168.023438 251.914062 168.238281 250.601562 167.992188 C 250.253906 167.925781 249.605469 167.707031 248.980469 167.492188 C 247.085938 166.847656 246.472656 166.667969 246.183594 167.125 C 246.089844 167.269531 246.082031 167.453125 246.15625 167.625 C 246.457031 168.308594 249.175781 169.972656 250.308594 170.167969 C 252.261719 170.507812 254.007812 170.105469 255.226562 169.046875 C 257.328125 167.214844 257.457031 163.835938 255.585938 159.78125 C 255.539062 159.675781 255.484375 159.574219 255.433594 159.472656 C 265.722656 166.667969 274.910156 175.527344 282.511719 185.738281 C 284.058594 187.816406 286.273438 191.019531 288.226562 193.84375 C 293.046875 200.820312 293.117188 200.820312 293.496094 200.820312 L 293.761719 200.820312 L 293.890625 200.574219 C 294.308594 199.746094 287.890625 188.269531 285.035156 184.40625 C 268.902344 162.570312 245.765625 146.710938 219.890625 139.746094 C 209.773438 137.023438 199.28125 135.644531 188.707031 135.644531 C 181.085938 135.644531 173.46875 136.355469 166.066406 137.765625 C 162.648438 138.414062 153.683594 141.296875 153.289062 142.148438 L 153.199219 142.347656 L 153.304688 142.566406 C 153.535156 142.972656 153.589844 143.066406 164.269531 140.992188 " fill-opacity="1" fill-rule="nonzero"/></g><g clip-path="url(#f33cd4ae32)"><path fill="#ffd700" d="M 300.96875 293.308594 L 300.773438 293.230469 C 300.230469 293.042969 300.1875 293.027344 295.996094 301.914062 L 293.917969 306.289062 C 288.1875 318.117188 280.503906 328.863281 271.078125 338.226562 C 249.039062 360.132812 219.785156 372.195312 188.707031 372.195312 L 181.058594 371.945312 C 167.5 371.074219 154.597656 367.878906 142.714844 362.773438 C 145.066406 356.265625 148.859375 351.960938 153.996094 349.972656 C 161.859375 346.929688 171.710938 349.871094 178.308594 353.640625 C 181.527344 355.480469 184.503906 356.8125 187.160156 357.601562 C 191.066406 358.765625 193.851562 358.042969 194.476562 357.394531 C 194.710938 357.152344 194.667969 356.910156 194.632812 356.820312 C 194.5 356.417969 194.09375 356.398438 193.203125 356.355469 C 192.03125 356.296875 190.066406 356.199219 187.429688 355.378906 C 185.023438 354.625 182.324219 353.394531 179.402344 351.730469 C 175.988281 349.777344 164.003906 343.730469 153.199219 347.917969 C 147.476562 350.132812 143.273438 354.828125 140.691406 361.882812 C 132.035156 357.96875 123.953125 353.019531 116.585938 347.21875 C 120.40625 346.457031 126.859375 344.183594 127.839844 337.46875 C 128.347656 334.007812 128.027344 331.449219 127.746094 329.195312 C 127.304688 325.648438 127.011719 323.308594 130.167969 319.425781 C 135.9375 312.320312 136.78125 307.710938 133.5 301.152344 C 130.988281 296.125 128.015625 283.160156 135.4375 277.191406 C 135.875 277.75 139.078125 281.640625 142.402344 280.890625 C 142.410156 281.019531 142.417969 281.15625 142.417969 281.320312 C 142.417969 282.246094 142.25 283.824219 141.558594 286.414062 C 140.917969 288.808594 140.523438 291.648438 140.523438 294.714844 C 140.523438 300.664062 142.015625 307.484375 146.121094 313.648438 C 148.808594 317.675781 151.804688 320.179688 154.210938 322.1875 C 157.507812 324.941406 159.710938 326.78125 159.710938 330.789062 C 159.710938 330.886719 159.710938 330.988281 159.710938 331.085938 C 159.636719 333.839844 158.457031 335.601562 156.476562 335.929688 C 155.191406 336.140625 153.726562 335.699219 152.554688 334.75 C 152.203125 334.460938 151.625 333.703125 151.117188 333.035156 C 150.046875 331.628906 149.683594 331.191406 149.21875 331.359375 C 149.136719 331.394531 148.9375 331.492188 148.890625 331.78125 C 148.773438 332.511719 150.148438 335.636719 151.246094 336.515625 C 152.902344 337.835938 154.9375 338.417969 156.835938 338.105469 C 159.914062 337.597656 161.8125 334.996094 161.914062 331.144531 C 162.054688 325.863281 159.214844 323.492188 155.621094 320.492188 C 153.207031 318.476562 150.464844 316.1875 147.957031 312.425781 C 146.464844 310.1875 145.347656 307.855469 144.53125 305.519531 C 146.195312 304.53125 149.488281 302.132812 151.589844 297.703125 L 152.722656 295.207031 C 155.664062 288.554688 161.050781 276.394531 168.871094 275.332031 C 168.808594 275.734375 168.765625 276.175781 168.765625 276.648438 C 168.765625 278.191406 169.191406 279.957031 170.59375 281.105469 C 170.195312 281.707031 169.386719 282.703125 167.792969 284.035156 C 164.738281 286.578125 159.0625 294.898438 162.089844 303.027344 C 162.757812 304.808594 163.699219 305.839844 164.976562 306.183594 C 167.453125 306.84375 170.152344 304.609375 173.277344 302.019531 C 175.257812 300.382812 177.300781 298.691406 179.242188 297.808594 C 183.757812 295.757812 186.660156 295.074219 188.046875 294.882812 C 187.878906 295.398438 187.78125 295.964844 187.78125 296.605469 C 187.78125 298.382812 188.4375 300.058594 188.511719 300.246094 C 188.519531 300.257812 188.527344 300.265625 188.535156 300.277344 C 176.273438 305.972656 167.390625 319.726562 173.777344 335.585938 C 177.546875 344.949219 184.355469 348.351562 189.398438 349.558594 C 192.675781 350.34375 195.851562 349.894531 196.417969 349.398438 C 196.609375 349.230469 196.621094 349.042969 196.609375 348.941406 C 196.558594 348.421875 196.023438 348.359375 194.25 348.15625 C 193.003906 348.015625 191.289062 347.820312 189.648438 347.414062 C 185.226562 346.324219 179.238281 343.238281 175.824219 334.761719 C 169.828125 319.878906 178.511719 306.988281 190.1875 301.945312 C 190.316406 301.890625 190.429688 301.808594 190.523438 301.714844 C 193.449219 301.074219 205.34375 298.441406 207.261719 297.378906 C 208.011719 296.960938 208.125 296.269531 207.992188 295.800781 C 207.277344 293.265625 194.820312 292.09375 191.945312 292.214844 C 191.074219 292.25 190.335938 292.449219 189.726562 292.789062 C 189.625 292.734375 189.515625 292.6875 189.394531 292.664062 C 188.003906 292.386719 183.949219 293.25 178.328125 295.800781 C 176.121094 296.804688 173.960938 298.59375 171.875 300.320312 C 169.550781 302.242188 166.921875 304.417969 165.546875 304.054688 C 165.015625 303.910156 164.550781 303.304688 164.160156 302.257812 C 163.542969 300.601562 163.359375 298.894531 163.484375 297.230469 C 171.050781 297.445312 176.898438 295.089844 180.519531 293.019531 C 184.058594 290.996094 186.710938 288.019531 186.804688 287.179688 C 186.832031 286.941406 186.71875 286.796875 186.648438 286.734375 C 186.257812 286.382812 185.875 286.660156 184.257812 287.839844 C 183.042969 288.726562 181.378906 289.9375 179.425781 291.058594 C 176.058594 292.976562 170.683594 295.164062 163.820312 295.035156 C 164.761719 290.910156 167.300781 287.316406 169.207031 285.726562 C 171.195312 284.070312 172.167969 282.804688 172.648438 281.980469 C 174.890625 282.144531 178.214844 280.460938 182.265625 278.398438 C 182.824219 278.113281 183.382812 277.832031 183.9375 277.550781 C 184.695312 278.621094 187.089844 281.414062 192.167969 282.777344 C 194.90625 283.511719 196.628906 284.085938 197.925781 284.695312 C 198.941406 285.167969 200.179688 286.375 201.085938 287.253906 C 202.117188 288.257812 202.464844 288.597656 202.871094 288.414062 C 203.050781 288.332031 203.160156 288.15625 203.160156 287.945312 C 203.160156 287.117188 200.792969 283.574219 198.605469 282.589844 C 197.175781 281.949219 195.421875 281.367188 192.738281 280.648438 C 188.792969 279.589844 186.738281 277.53125 185.960938 276.5625 C 187.980469 275.617188 189.792969 274.914062 190.957031 274.914062 C 191.65625 274.914062 192.21875 274.632812 192.492188 274.140625 C 192.730469 273.71875 192.714844 273.21875 192.457031 272.792969 C 192.222656 272.40625 191.507812 271.230469 185.867188 271.429688 C 185.863281 271.429688 184.132812 271.484375 184.132812 271.484375 C 183.351562 271.511719 182.597656 271.535156 181.863281 271.5625 C 180.8125 270.453125 178.597656 267.683594 178.007812 266.5 C 175.238281 260.9375 173.3125 251.164062 179.792969 242.652344 C 188.269531 231.515625 207.265625 236.09375 214.117188 237.546875 C 216.792969 238.113281 217.273438 238.214844 217.804688 237.554688 C 218.144531 237.128906 218.246094 236.558594 218.09375 235.949219 C 217.390625 233.238281 211.890625 230.617188 208.675781 229.296875 C 201.441406 226.328125 200.835938 219.960938 200.8125 219.695312 C 200.777344 219.265625 200.496094 218.894531 200.09375 218.746094 C 199.691406 218.597656 199.238281 218.699219 198.933594 219.003906 C 197.410156 220.527344 196.632812 222.367188 196.625 224.472656 C 196.625 224.476562 196.625 224.480469 196.625 224.484375 C 196.625 226.101562 197.472656 227.871094 198.136719 228.511719 C 197.351562 228.464844 196.335938 228.414062 195.011719 228.355469 L 191.648438 228.179688 C 182.4375 227.457031 174.410156 224.59375 169.300781 222.320312 L 167.121094 221.339844 C 162.933594 219.441406 162.378906 219.230469 162.042969 219.769531 L 161.996094 220.203125 C 162.242188 220.996094 165.390625 223.003906 168.601562 224.421875 C 173.859375 226.738281 182.109375 229.65625 191.578125 230.382812 C 193.644531 230.542969 200.078125 230.207031 200.671875 229.617188 L 200.8125 229.476562 L 200.8125 229.242188 C 200.789062 228.882812 200.636719 228.71875 199.109375 228.585938 C 199.1875 228.480469 199.222656 228.34375 199.222656 228.148438 C 199.222656 227.875 199.160156 227.488281 199.074219 226.945312 C 198.957031 226.214844 198.808594 225.304688 198.808594 224.527344 C 198.808594 223.820312 198.980469 223.160156 199.234375 222.527344 C 200.160156 225.214844 202.40625 229.109375 207.839844 231.339844 C 212.347656 233.191406 214.339844 234.648438 215.230469 235.523438 C 214.925781 235.460938 214.574219 235.390625 214.574219 235.390625 C 207.347656 233.859375 188.15625 229.789062 178.835938 242.035156 C 171.34375 251.875 174.453125 261.878906 176.976562 266.964844 C 177.921875 268.878906 179.296875 270.695312 180.296875 271.628906 C 175.617188 271.84375 172.160156 272.207031 170.332031 273.199219 C 170.164062 273.101562 169.96875 273.042969 169.757812 273.046875 C 164.714844 273.152344 160.65625 276.886719 157.460938 281.484375 C 157.457031 275.691406 160.914062 271.570312 164.039062 269.035156 C 165.773438 267.628906 167.648438 266.46875 169.019531 265.625 C 170.761719 264.550781 171.175781 264.296875 170.988281 263.804688 C 170.933594 263.65625 170.804688 263.546875 170.636719 263.5 C 169.816406 263.28125 165.777344 264.785156 162.632812 267.34375 C 158.636719 270.589844 154.15625 276.167969 155.488281 284.3125 C 155.496094 284.378906 155.515625 284.441406 155.539062 284.507812 C 153.511719 287.972656 151.914062 291.578125 150.703125 294.308594 L 149.597656 296.765625 C 147.933594 300.257812 145.375 302.335938 143.855469 303.332031 C 142.226562 297.28125 142.527344 291.34375 143.691406 286.980469 C 144.714844 283.136719 144.777344 280.972656 144.460938 279.765625 C 145.484375 278.859375 146.527344 277.476562 147.777344 275.804688 C 150.371094 272.332031 153.597656 268.007812 158.390625 265.808594 C 158.855469 265.589844 159.113281 265.089844 159.007812 264.582031 C 158.902344 264.078125 158.46875 263.714844 157.953125 263.703125 C 157.550781 263.695312 147.988281 263.605469 135.636719 274.332031 C 135.554688 274.402344 135.492188 274.484375 135.433594 274.574219 C 134.746094 274.984375 134.195312 275.355469 134.183594 275.363281 C 129.921875 278.703125 128.503906 283.800781 128.503906 288.8125 C 128.503906 293.089844 129.539062 297.304688 130.722656 300.316406 C 129.640625 300.734375 128.578125 301.210938 127.558594 301.738281 C 125.34375 299.003906 117.125 287.84375 116.527344 272.308594 C 122.941406 268.761719 130.890625 265.703125 140.527344 264.1875 L 144.355469 263.660156 C 151.367188 262.738281 151.363281 262.652344 151.34375 262.09375 L 151.335938 261.898438 L 151.167969 261.746094 C 150.480469 261.183594 142.664062 261.628906 140.398438 261.976562 C 130.886719 263.445312 122.957031 266.378906 116.472656 269.828125 C 116.429688 264.933594 116.320312 264.515625 115.761719 264.457031 L 115.566406 264.4375 L 115.375 264.589844 C 114.847656 265.078125 114.398438 268.953125 114.308594 271.027344 C 108.558594 274.347656 104.054688 278.027344 100.699219 281.285156 C 98.761719 283.171875 96.945312 285.160156 95.257812 287.21875 C 94.453125 285.082031 94.15625 284.667969 93.664062 284.757812 C 93.511719 284.785156 93.382812 284.882812 93.300781 285.027344 C 93.023438 285.546875 93.324219 287.691406 93.710938 289.191406 C 92.757812 290.445312 91.851562 291.726562 91 293.035156 C 88.746094 296.488281 87.128906 300.449219 87.386719 301.269531 C 87.433594 301.425781 87.539062 301.539062 87.675781 301.597656 C 88.226562 301.820312 88.523438 301.324219 90.1875 298.558594 L 92.816406 294.320312 C 93.410156 293.402344 94.035156 292.5 94.675781 291.609375 C 99.894531 301.980469 112.90625 308.644531 117.132812 310.59375 C 113.785156 314.96875 111.574219 319.976562 110.117188 324.671875 C 98.550781 324.734375 90.792969 318.578125 90.710938 318.515625 C 90.597656 318.421875 90.46875 318.355469 90.335938 318.316406 C 78.621094 300.078125 71.84375 278.429688 71.84375 255.335938 C 71.84375 244.921875 73.214844 234.597656 75.917969 224.648438 C 77.261719 223.242188 91.710938 208.625 116.21875 201.574219 L 118.53125 200.929688 C 125.898438 198.894531 125.875 198.777344 125.769531 198.222656 L 125.734375 198.035156 L 125.546875 197.90625 C 124.800781 197.445312 117.554688 198.894531 115.664062 199.441406 C 112.351562 200.390625 109.21875 201.480469 106.265625 202.65625 C 105.535156 201.644531 103.84375 199.480469 101.519531 197.507812 C 100.257812 196.433594 96.042969 194.394531 95.246094 194.589844 L 95.03125 194.644531 L 94.902344 194.882812 C 94.707031 195.367188 95.058594 195.648438 97.585938 197.398438 C 98.648438 198.128906 99.746094 198.890625 100.347656 199.417969 C 102.082031 200.9375 103.410156 202.546875 104.160156 203.523438 C 90.824219 209.191406 81.5625 216.503906 77.144531 220.445312 C 79.90625 211.597656 83.726562 203.101562 88.523438 195.132812 C 92.695312 188.207031 97.605469 181.699219 103.121094 175.773438 C 104.820312 176.871094 108.808594 178.621094 114.636719 176.011719 C 116.441406 175.207031 117.914062 174.378906 119.214844 173.648438 C 123.128906 171.460938 125.707031 170.015625 132.941406 171.390625 C 136.835938 172.132812 138.726562 173.144531 140.386719 174.035156 C 143.070312 175.476562 145.382812 176.714844 153.621094 176.320312 C 163.210938 175.855469 166.796875 174.523438 168.085938 173.421875 C 171.109375 174.644531 174.019531 176.03125 176.550781 177.644531 C 173.433594 178.597656 171.320312 179.78125 171.261719 179.816406 C 170.921875 180.011719 170.710938 180.378906 170.710938 180.773438 L 170.734375 181.011719 C 170.839844 181.484375 171.234375 181.828125 171.71875 181.871094 C 175.257812 182.164062 180.785156 186.308594 181.425781 188.621094 C 181.429688 188.621094 181.46875 188.871094 181.46875 188.871094 C 181.46875 188.871094 181.46875 188.882812 181.464844 188.890625 C 169.359375 192.320312 164.324219 182.417969 164.117188 181.992188 C 163.902344 181.558594 163.433594 181.3125 162.953125 181.390625 C 162.46875 181.46875 162.101562 181.84375 162.035156 182.324219 C 161.878906 183.421875 161.804688 184.496094 161.804688 185.523438 C 161.804688 193.871094 166.789062 198.410156 170.964844 200.746094 C 167.253906 199.917969 165.054688 197.9375 165.027344 197.914062 C 164.679688 197.578125 164.140625 197.511719 163.71875 197.753906 C 163.292969 197.996094 163.078125 198.496094 163.191406 198.972656 C 163.257812 199.230469 164.820312 205.363281 171.496094 208.398438 C 179.707031 212.132812 190.007812 210.242188 193.988281 204.273438 C 197.089844 199.617188 201.527344 195.089844 210.902344 196.792969 C 216.132812 197.742188 219.554688 195.96875 221.503906 194.3125 C 223.824219 192.335938 224.960938 189.070312 224.878906 184.597656 C 224.824219 181.632812 223.699219 178.710938 221.527344 175.902344 C 219.375 173.117188 215.738281 170.796875 214.863281 170.835938 C 214.6875 170.847656 214.535156 170.929688 214.445312 171.066406 C 214.171875 171.496094 214.492188 171.800781 215.84375 173.085938 C 216.988281 174.179688 218.722656 175.832031 220.050781 177.644531 C 221.75 179.957031 222.632812 182.308594 222.671875 184.632812 C 222.742188 188.414062 221.871094 191.105469 220.074219 192.632812 C 218.203125 194.226562 215.203125 194.65625 211.160156 193.921875 C 200.398438 191.964844 195.171875 197.484375 191.820312 202.511719 C 188.296875 207.796875 179.40625 209.570312 172.40625 206.390625 C 169.75 205.179688 168.039062 203.375 166.953125 201.753906 C 169.394531 202.929688 172.878906 203.855469 177.273438 203.070312 C 177.792969 202.976562 178.175781 202.523438 178.179688 201.996094 C 178.179688 201.457031 177.804688 201 177.289062 200.902344 C 176.75 200.796875 164.136719 198.183594 164.019531 185.714844 C 166.65625 188.878906 172.59375 193.851562 182.378906 190.9375 L 182.707031 190.773438 C 183.339844 190.320312 183.675781 189.664062 183.675781 188.875 L 183.554688 188.027344 C 182.835938 185.457031 178.839844 182.019531 174.964844 180.484375 C 177.4375 179.460938 181.175781 178.316406 185.0625 178.558594 C 185.167969 178.585938 185.277344 178.601562 185.390625 178.597656 C 185.410156 178.597656 185.429688 178.589844 185.449219 178.585938 C 189.347656 178.929688 193.359375 180.714844 196.363281 185.488281 C 196.566406 185.8125 196.929688 186.007812 197.308594 186.003906 C 197.691406 186 198.050781 185.789062 198.242188 185.460938 C 198.265625 185.425781 200.589844 181.398438 200.589844 176.421875 C 200.589844 172.953125 199.429688 169.875 197.246094 167.222656 C 200.445312 167.464844 206.46875 168.777344 210.050781 174.925781 C 210.546875 175.777344 211.230469 177.523438 211.835938 179.0625 C 213.039062 182.136719 213.214844 182.523438 213.738281 182.421875 L 213.957031 182.378906 L 214.082031 182.140625 C 214.414062 181.386719 212.953125 175.488281 211.816406 173.617188 C 205.980469 163.988281 194.734375 165 194.621094 165.007812 C 194.1875 165.054688 193.816406 165.351562 193.683594 165.765625 C 193.683594 165.765625 193.628906 166.105469 193.628906 166.105469 C 193.628906 166.421875 193.765625 166.722656 194 166.933594 C 195.921875 168.640625 197.222656 170.605469 197.894531 172.800781 C 189.621094 165.171875 179.195312 167.738281 176.816406 168.464844 C 171.871094 164.144531 165.816406 158.964844 160.960938 155.132812 C 153.261719 149.058594 144.535156 145.242188 139.746094 145.847656 C 138.398438 146.019531 137.394531 146.527344 136.765625 147.355469 C 136.484375 147.722656 136.335938 148.152344 136.335938 148.59375 L 136.398438 149.097656 C 136.953125 151.425781 141.4375 153.746094 148.753906 157.289062 C 149.871094 157.828125 151.074219 158.414062 152.195312 158.980469 C 148.515625 158.984375 144.726562 159.683594 144.109375 162.449219 C 144.070312 162.625 144.050781 162.796875 144.050781 162.964844 C 144.050781 165.449219 148.433594 166.839844 156.007812 169.234375 C 158.945312 170.167969 162.171875 171.191406 165.378906 172.375 C 163.765625 172.972656 160.386719 173.785156 153.515625 174.117188 C 145.878906 174.484375 143.910156 173.429688 141.417969 172.089844 C 139.613281 171.125 137.570312 170.023438 133.347656 169.222656 C 125.335938 167.699219 122.328125 169.386719 118.15625 171.722656 C 116.894531 172.425781 115.46875 173.226562 113.75 173.996094 C 109.210938 176.027344 106.121094 174.972656 104.664062 174.144531 C 110.300781 168.308594 116.496094 163.066406 123.105469 158.558594 C 132.632812 152.066406 132.402344 151.707031 132.164062 151.332031 L 132.066406 151.175781 L 131.863281 151.125 C 131.046875 150.953125 124.21875 154.378906 121.667969 156.113281 C 114.4375 161.027344 107.691406 166.785156 101.609375 173.238281 C 95.726562 179.476562 90.507812 186.347656 86.101562 193.671875 C 80.460938 203.042969 76.136719 213.128906 73.257812 223.648438 C 70.441406 233.921875 69.015625 244.585938 69.015625 255.335938 C 69.015625 318.261719 118.15625 370.726562 180.890625 374.773438 L 188.695312 375.023438 C 220.535156 375.023438 250.496094 362.667969 273.070312 340.234375 C 282.757812 330.613281 290.644531 319.574219 296.515625 307.417969 C 298.28125 303.765625 301.371094 294.261719 301.046875 293.484375 Z M 107.394531 339.175781 C 102.222656 334.15625 97.515625 328.664062 93.34375 322.773438 C 96.832031 324.617188 102.425781 326.792969 109.476562 326.882812 C 108.097656 332.003906 107.585938 336.542969 107.394531 339.175781 Z M 114.375 273.550781 C 115.316406 288.597656 123.019531 299.542969 125.621094 302.835938 C 123.03125 304.441406 120.675781 306.453125 118.589844 308.828125 C 115.230469 307.320312 100.914062 300.351562 96.1875 289.605469 C 98.054688 287.222656 100.089844 284.953125 102.28125 282.824219 C 105.3125 279.886719 109.316406 276.589844 114.375 273.550781 Z M 127.730469 304.871094 C 128.941406 304.191406 130.574219 303.347656 131.851562 302.808594 C 132.710938 304.6875 133.167969 306.378906 133.167969 308.046875 C 133.167969 311.101562 131.664062 314.089844 128.457031 318.035156 C 125.90625 321.175781 125.273438 323.640625 125.273438 326.046875 C 125.273438 327.175781 125.410156 328.292969 125.558594 329.460938 C 125.722656 330.78125 125.898438 332.203125 125.898438 333.855469 C 125.898438 334.859375 125.832031 335.949219 125.660156 337.148438 C 124.683594 343.820312 116.535156 345.109375 114.269531 345.34375 C 112.636719 343.992188 111.042969 342.601562 109.492188 341.164062 C 109.554688 338.382812 110.328125 322.789062 119.632812 311.648438 C 121.972656 308.847656 124.695312 306.566406 127.730469 304.871094 Z M 142.503906 278.496094 C 140.496094 279.742188 137.703125 276.484375 137.21875 275.886719 C 143.410156 270.539062 148.84375 268.035156 152.792969 266.863281 C 149.890625 269.304688 147.683594 272.242188 146.007812 274.484375 C 144.632812 276.324219 143.449219 277.914062 142.503906 278.496094 Z M 172.5 279.722656 C 171.492188 279.238281 170.976562 278.226562 170.976562 276.707031 C 170.976562 276.089844 171.0625 275.585938 171.117188 275.320312 C 172.203125 274.070312 180.289062 273.8125 184.207031 273.691406 L 185.941406 273.632812 C 186.414062 273.617188 186.84375 273.617188 187.261719 273.621094 C 185.402344 274.335938 183.316406 275.386719 181.269531 276.429688 C 178.25 277.964844 173.683594 280.289062 172.5 279.722656 Z M 190.5625 299.445312 C 190.5625 299.441406 190.558594 299.414062 190.558594 299.414062 C 190.359375 298.925781 189.984375 297.707031 189.984375 296.601562 C 189.984375 295.988281 190.097656 295.507812 190.3125 295.167969 C 190.617188 294.699219 191.179688 294.453125 192.039062 294.417969 C 195.433594 294.273438 201.34375 295.238281 204.355469 296.085938 C 201.355469 296.972656 195.511719 298.359375 190.5625 299.445312 Z M 156.703125 161.503906 C 157.191406 161.570312 157.671875 161.304688 157.871094 160.851562 C 157.933594 160.710938 157.960938 160.5625 157.960938 160.414062 C 157.960938 160.085938 157.820312 159.765625 157.554688 159.554688 C 156.15625 158.421875 153.171875 156.980469 149.714844 155.304688 C 145.722656 153.371094 139.097656 150.160156 138.574219 148.652344 C 138.847656 148.335938 139.320312 148.125 140.023438 148.035156 C 143.609375 147.582031 151.484375 150.46875 159.59375 156.863281 C 167.375 163 178.148438 172.539062 182.578125 176.503906 C 181.484375 176.574219 180.425781 176.722656 179.421875 176.921875 C 173.101562 172.339844 164.003906 169.453125 156.675781 167.132812 C 153.34375 166.078125 146.417969 163.886719 146.265625 162.914062 C 146.652344 161.171875 151.984375 160.820312 156.703125 161.503906 Z M 185.9375 176.550781 C 185.3125 175.988281 182.523438 173.480469 178.789062 170.199219 C 182.550781 169.296875 191.679688 168.234375 198.433594 176.578125 C 198.414062 179.175781 197.671875 181.398438 197.082031 182.789062 C 193.859375 178.621094 189.839844 176.949219 185.9375 176.550781 " fill-opacity="1" fill-rule="nonzero"/></g><path fill="#ffd700" d="M 128.457031 184.222656 C 134.050781 184.222656 139.769531 184.871094 145.453125 186.152344 C 147.871094 186.699219 150.011719 187.265625 151.734375 187.722656 C 155.199219 188.640625 155.734375 188.78125 155.957031 188.242188 L 156.035156 188.054688 L 155.933594 187.820312 C 155.539062 187.066406 150.640625 184.996094 144.941406 183.785156 C 139.417969 182.613281 133.871094 182.015625 128.457031 182.015625 C 121.273438 182.015625 117.578125 183.273438 117.160156 185.863281 C 116.761719 188.328125 119.699219 190.472656 121.917969 191.214844 L 122.316406 191.34375 C 126.324219 192.679688 127.144531 193.183594 126.730469 195.527344 C 125.929688 200.070312 128.074219 201.667969 132.59375 203.175781 C 137.035156 204.65625 136.972656 206.816406 136.5625 208.730469 C 136.34375 209.75 136.753906 210.710938 137.664062 211.292969 C 140.242188 212.941406 147.101562 211.785156 152.824219 207.492188 C 156.507812 204.730469 158.113281 201.9375 157.34375 199.628906 C 156.585938 197.359375 153.757812 196.113281 149.386719 196.113281 C 147.410156 196.113281 145.867188 196.34375 144.800781 196.800781 C 143.1875 197.496094 142.945312 198.5625 142.945312 199.136719 C 142.945312 200.761719 146.582031 201.570312 147.4375 201.570312 C 148.089844 201.570312 148.140625 201.179688 148.140625 201.058594 C 148.140625 200.640625 147.734375 200.417969 146.5625 199.835938 C 146.128906 199.621094 145.46875 199.285156 145.21875 199.085938 C 145.28125 199.035156 145.398438 198.945312 145.667969 198.828125 C 146.214844 198.59375 147.300781 198.316406 149.386719 198.316406 C 152.589844 198.316406 154.835938 199.089844 155.25 200.328125 C 155.675781 201.605469 154.238281 203.675781 151.5 205.730469 C 146.234375 209.679688 140.320312 210.371094 138.855469 209.433594 C 138.6875 209.328125 138.695312 209.296875 138.71875 209.191406 C 139.566406 205.234375 137.792969 202.582031 133.289062 201.078125 C 128.910156 199.617188 128.417969 198.667969 128.902344 195.914062 C 129.6875 191.46875 126.59375 190.441406 123.011719 189.253906 L 122.613281 189.121094 C 120.917969 188.554688 119.203125 187.035156 119.335938 186.214844 C 119.347656 186.132812 119.761719 184.222656 128.457031 184.222656 " fill-opacity="1" fill-rule="nonzero"/><path fill="#ffd700" d="M 108.851562 236.476562 C 111.039062 238.695312 116.1875 238.699219 122.625 236.484375 C 127.988281 234.640625 130.582031 232.554688 129.925781 230.617188 C 129.496094 229.34375 126.679688 229.824219 125.761719 230.132812 C 125.277344 230.296875 125.035156 230.515625 125.035156 230.785156 C 125.035156 230.835938 125.042969 230.894531 125.0625 230.949219 C 125.214844 231.40625 125.804688 231.472656 127.316406 231.535156 C 127.316406 231.535156 127.449219 231.542969 127.539062 231.546875 C 126.964844 232.128906 125.40625 233.199219 121.90625 234.402344 C 116.542969 236.246094 111.925781 236.457031 110.421875 234.929688 C 109.847656 234.347656 109.773438 233.445312 110.203125 232.257812 C 111.125 229.707031 113.558594 227.25 115.4375 225.636719 L 115.972656 225.175781 C 118.832031 222.730469 119.414062 222.15625 119.066406 221.609375 L 118.675781 221.371094 C 117.878906 221.25 115.4375 222.710938 113.945312 224 C 113.804688 224.121094 113.660156 224.246094 113.515625 224.378906 C 113.433594 224.382812 113.351562 224.394531 113.273438 224.417969 C 112.726562 224.574219 110.980469 224.890625 110.113281 224.289062 C 109.777344 224.054688 109.597656 223.679688 109.554688 223.113281 C 109.472656 222.035156 111.191406 220.316406 114.15625 218.515625 L 115.257812 217.863281 C 119.054688 215.621094 119.367188 215.300781 119.148438 214.792969 C 119.148438 214.792969 118.820312 214.503906 118.820312 214.503906 C 118.066406 214.257812 114.882812 215.496094 113.058594 216.59375 C 109.117188 218.972656 107.199219 221.222656 107.355469 223.28125 C 107.449219 224.53125 107.960938 225.480469 108.863281 226.109375 C 109.53125 226.570312 110.320312 226.765625 111.074219 226.824219 C 109.851562 228.222656 108.738281 229.824219 108.128906 231.507812 C 107.207031 234.070312 108.011719 235.625 108.851562 236.476562 " fill-opacity="1" fill-rule="nonzero"/><path fill="#ffd700" d="M 99.492188 250.648438 C 100.976562 249.539062 101.355469 249.230469 101.164062 248.78125 C 100.972656 248.339844 100.566406 248.300781 97.304688 248.992188 L 96.957031 249.0625 C 95.972656 249.261719 94.550781 249.660156 93.367188 250.425781 C 91.957031 251.339844 89.050781 252.28125 88.085938 251.65625 C 87.691406 251.402344 87.714844 250.6875 87.796875 250.128906 C 88.027344 248.617188 89.246094 247.015625 91.414062 245.367188 C 92.523438 244.527344 93.824219 243.695312 94.867188 243.023438 C 96.953125 241.683594 97.449219 241.367188 97.222656 240.84375 C 97.1875 240.761719 97.09375 240.609375 96.875 240.550781 C 96.0625 240.335938 92.539062 241.78125 90.328125 243.425781 C 87.53125 245.507812 85.945312 247.652344 85.617188 249.796875 C 85.285156 251.972656 86.125 253.015625 86.886719 253.511719 C 89.289062 255.058594 93.554688 252.933594 94.566406 252.277344 C 94.75 252.160156 94.976562 252.054688 95.195312 251.949219 C 94.339844 253.210938 93.585938 254.765625 93.585938 256.347656 L 93.59375 256.636719 C 93.683594 258.15625 96.113281 260.191406 96.816406 260.390625 C 97.195312 260.496094 97.382812 260.277344 97.433594 260.210938 C 97.695312 259.832031 97.414062 259.398438 96.800781 258.445312 C 96.386719 257.804688 95.820312 256.929688 95.796875 256.511719 C 95.695312 254.742188 97.25 252.738281 98.1875 251.695312 C 98.378906 251.484375 98.96875 251.039062 99.492188 250.648438 " fill-opacity="1" fill-rule="nonzero"/><path fill="#ffd700" d="M 85.085938 240.488281 C 85.542969 240.617188 85.792969 240.265625 87.042969 238.378906 C 87.832031 237.1875 88.8125 235.703125 89.476562 235.113281 C 90.691406 234.035156 92.167969 233.15625 93.242188 232.507812 C 94.550781 231.722656 94.996094 231.457031 94.839844 230.976562 C 94.8125 230.898438 94.726562 230.707031 94.457031 230.632812 C 93.675781 230.425781 90.148438 231.484375 87.839844 233.597656 C 86.542969 234.789062 84.734375 238.945312 84.734375 239.992188 C 84.734375 240.042969 84.738281 240.085938 84.746094 240.121094 C 84.792969 240.300781 84.917969 240.441406 85.085938 240.488281 " fill-opacity="1" fill-rule="nonzero"/><path fill="#ffd700" d="M 81.441406 281.710938 C 81.441406 284.511719 82.804688 285.148438 83.613281 285.285156 C 84.628906 285.445312 85.898438 284.933594 87.195312 283.835938 C 88.472656 282.75 90.058594 279.253906 89.914062 278.5 C 89.878906 278.308594 89.753906 278.160156 89.585938 278.105469 C 89.121094 277.949219 88.789062 278.363281 87.585938 279.964844 C 86.972656 280.785156 86.277344 281.710938 85.816406 282.113281 C 84.949219 282.863281 84.265625 283.152344 83.96875 283.105469 C 83.867188 283.085938 83.644531 282.714844 83.644531 281.710938 C 83.644531 280.011719 84.289062 278.011719 85.5625 275.769531 C 86.234375 274.578125 87.046875 273.347656 87.695312 272.359375 C 89.046875 270.3125 89.410156 269.761719 88.988281 269.371094 C 88.921875 269.308594 88.773438 269.210938 88.550781 269.246094 C 87.734375 269.371094 85.164062 272.023438 83.75 274.472656 C 82.21875 277.132812 81.441406 279.570312 81.441406 281.710938 " fill-opacity="1" fill-rule="nonzero"/><path fill="#ffd700" d="M 146.242188 260.785156 C 146.242188 260.789062 146.257812 261.019531 146.257812 261.019531 L 146.453125 261.148438 C 146.882812 261.417969 147.101562 261.234375 149.773438 258.367188 C 151.175781 256.859375 152.769531 255.144531 153.832031 254.257812 C 158.554688 250.300781 163.433594 248.226562 163.480469 248.203125 C 163.929688 248.015625 164.199219 247.566406 164.152344 247.082031 C 164.105469 246.597656 163.753906 246.207031 163.28125 246.109375 C 158.503906 245.101562 153.199219 244.921875 147.511719 245.578125 C 142.714844 246.125 137.953125 247.6875 137.503906 248.375 L 137.394531 248.546875 L 137.441406 248.796875 C 137.613281 249.347656 138.121094 249.261719 141.417969 248.71875 C 143.164062 248.433594 145.335938 248.074219 147.695312 247.804688 C 151.875 247.316406 155.8125 247.324219 159.457031 247.753906 C 157.445312 248.859375 154.878906 250.460938 152.316406 252.628906 C 150.417969 254.234375 146.242188 259.996094 146.242188 260.785156 " fill-opacity="1" fill-rule="nonzero"/><path fill="#ffd700" d="M 175.433594 235.109375 C 175.460938 235.003906 175.476562 234.898438 175.476562 234.796875 C 175.476562 234.4375 175.300781 234.089844 174.984375 233.882812 C 174.835938 233.785156 159.902344 223.742188 156.246094 217.511719 C 154.894531 215.210938 154.675781 214.109375 154.675781 213.636719 C 154.675781 213.496094 154.691406 213.425781 154.707031 213.382812 C 154.894531 213.304688 155.453125 213.226562 155.839844 213.171875 C 156.957031 213.015625 157.570312 212.929688 157.660156 212.433594 C 157.664062 212.398438 157.667969 212.367188 157.667969 212.339844 C 157.667969 211.933594 157.179688 211.730469 157.011719 211.660156 C 155.984375 211.234375 153.722656 210.910156 152.914062 212.070312 C 152.617188 212.496094 152.464844 213.023438 152.464844 213.625 C 152.464844 214.839844 153.078125 216.476562 154.34375 218.628906 C 157.292969 223.65625 166.367188 230.507812 171.066406 233.851562 C 153.457031 234.800781 142.242188 239.859375 135.910156 243.996094 C 129.390625 248.257812 126.171875 253.582031 126.171875 254.355469 C 126.171875 254.355469 126.175781 254.597656 126.175781 254.597656 L 126.386719 254.746094 C 126.78125 254.988281 127.03125 254.726562 128.082031 253.625 C 129.535156 252.101562 132.5625 248.925781 137.128906 245.941406 C 143.761719 241.605469 155.609375 236.34375 174.398438 235.902344 C 174.882812 235.890625 175.296875 235.574219 175.433594 235.109375 " fill-opacity="1" fill-rule="nonzero"/><path fill="#ffd700" d="M 161.992188 219.851562 C 161.992188 219.851562 162.042969 219.769531 162.042969 219.769531 L 161.992188 219.851562 " fill-opacity="1" fill-rule="nonzero"/><path fill="#ffd700" d="M 222.578125 199.066406 C 223.28125 197.59375 223.515625 197.097656 223.105469 196.773438 C 223.027344 196.714844 222.855469 196.621094 222.609375 196.699219 C 221.863281 196.929688 219.734375 199.46875 218.886719 202.191406 C 218.179688 204.472656 218.050781 206.671875 218.503906 208.738281 C 219.359375 212.621094 222.234375 215.828125 227.050781 218.273438 C 235.910156 222.769531 245.347656 222.011719 251.703125 220.585938 C 255.371094 219.761719 259.121094 218.046875 259.503906 217.273438 C 259.578125 217.125 259.582031 216.96875 259.515625 216.828125 C 259.277344 216.304688 258.710938 216.460938 255.984375 217.214844 C 254.632812 217.585938 252.949219 218.054688 251.140625 218.457031 C 245.167969 219.789062 236.308594 220.5 228.046875 216.304688 C 223.851562 214.175781 221.367188 211.476562 220.660156 208.273438 C 220.296875 206.632812 220.402344 204.84375 220.972656 202.960938 C 221.402344 201.542969 222.082031 200.113281 222.578125 199.066406 " fill-opacity="1" fill-rule="nonzero"/><path fill="#ffd700" d="M 208.613281 204.832031 C 209.347656 204.832031 210.011719 205.113281 210.523438 205.5625 C 209.914062 202.785156 207.445312 200.703125 204.484375 200.703125 C 201.066406 200.703125 198.289062 203.476562 198.289062 206.894531 C 198.289062 210.316406 201.066406 213.089844 204.484375 213.089844 C 206.546875 213.089844 208.359375 212.070312 209.484375 210.519531 C 209.210938 210.609375 208.917969 210.667969 208.613281 210.667969 C 207 210.667969 205.695312 209.363281 205.695312 207.75 C 205.695312 206.140625 207 204.832031 208.613281 204.832031 " fill-opacity="1" fill-rule="nonzero"/><path fill="#ffd700" d="M 281.242188 209.972656 C 278.824219 211.628906 276.355469 212.882812 273.898438 213.699219 C 272.160156 214.277344 270.578125 214.59375 269.421875 214.820312 C 267.917969 215.121094 267.414062 215.222656 267.382812 215.726562 C 267.375 215.832031 267.398438 216.027344 267.609375 216.191406 C 268.210938 216.652344 271.214844 216.929688 274.585938 215.808594 C 277.222656 214.929688 279.878906 213.578125 282.488281 211.792969 C 289 207.332031 293.976562 207.050781 297.277344 210.96875 C 298.113281 211.960938 298.503906 213.132812 298.503906 214.660156 C 298.503906 215.769531 298.300781 216.941406 298.101562 218.074219 C 297.894531 219.246094 297.703125 220.339844 297.703125 221.402344 C 297.703125 222.046875 297.773438 222.613281 297.921875 223.140625 C 298.535156 225.316406 299.878906 225.882812 300.960938 226.332031 C 301.914062 226.734375 302.605469 227.023438 303.054688 228.503906 C 303.277344 229.234375 303.386719 229.816406 303.386719 230.28125 C 303.386719 230.730469 303.285156 231.078125 303.074219 231.367188 C 302.1875 232.578125 299.046875 233.214844 293.738281 233.273438 C 293.742188 233.273438 291.496094 233.296875 291.496094 233.296875 C 282.273438 233.394531 278.140625 233.597656 276.835938 237.359375 L 276.632812 237.945312 C 275.5625 241.058594 272.804688 249.070312 269.402344 251.265625 C 269.3125 250.519531 269.257812 249.394531 269.21875 248.511719 C 269.085938 245.554688 268.921875 242 267.695312 239.789062 C 267.882812 239.714844 268.0625 239.648438 268.230469 239.582031 C 269.171875 239.222656 269.648438 239.042969 269.6875 238.574219 C 269.695312 238.472656 269.683594 238.21875 269.386719 238.019531 C 268.847656 237.652344 267.148438 237.496094 264.898438 238.628906 C 263.75 239.207031 262.425781 239.976562 260.960938 240.921875 C 255.4375 244.480469 246.058594 245.566406 237.621094 243.621094 C 237.34375 243.558594 235.964844 243.460938 235.417969 243.800781 L 235.125 244.195312 C 235.125 244.195312 235.140625 244.292969 235.164062 244.398438 C 234.71875 243.855469 232.894531 243.605469 232.878906 243.601562 L 224.070312 242.535156 C 227.761719 239.347656 231.441406 237.4375 234.566406 236.300781 C 236.542969 235.582031 238.597656 235.058594 240.675781 234.738281 C 243.074219 234.371094 245.332031 234.285156 246.824219 234.230469 C 248.800781 234.160156 249.269531 234.144531 249.355469 233.628906 C 249.378906 233.46875 249.324219 233.304688 249.199219 233.183594 C 248.574219 232.554688 244.410156 231.890625 240.117188 232.585938 C 238.007812 232.925781 235.914062 233.472656 233.886719 234.203125 C 230.113281 235.5625 225.597656 237.964844 221.175781 242.1875 L 219.917969 242.035156 C 216.261719 241.59375 213.613281 240.941406 211.050781 240.3125 C 207.878906 239.53125 204.605469 238.722656 199.515625 238.328125 C 190.558594 237.628906 180.859375 241.570312 179.402344 251.945312 C 178.898438 255.523438 179.144531 259 180.125 262.273438 C 180.96875 265.074219 182.839844 267.59375 183.640625 267.859375 C 183.890625 267.9375 184.0625 267.847656 184.144531 267.789062 C 184.5625 267.476562 184.347656 266.96875 183.703125 265.460938 C 183.273438 264.445312 182.679688 263.054688 182.230469 261.539062 C 181.351562 258.574219 181.136719 255.449219 181.585938 252.253906 C 182.433594 246.234375 186.582031 242.730469 191.617188 241.269531 C 191.648438 244.429688 192.121094 251.914062 195.71875 256.296875 C 194.433594 255.964844 193.21875 255.496094 192.078125 254.898438 C 190.085938 253.847656 188.523438 252.417969 187.492188 251.472656 C 186.574219 250.632812 186.230469 250.320312 185.835938 250.574219 C 185.761719 250.617188 185.601562 250.753906 185.601562 251.027344 C 185.601562 251.035156 185.601562 251.046875 185.601562 251.058594 C 185.640625 251.964844 187.730469 255.089844 191.039062 256.839844 C 192.019531 257.359375 193.050781 257.777344 194.125 258.117188 C 193.175781 258.800781 192.257812 259.914062 191.527344 260.9375 C 190.894531 261.828125 189.699219 264.492188 189.886719 265.210938 C 189.925781 265.371094 190.023438 265.496094 190.164062 265.5625 C 190.671875 265.808594 191.113281 265.359375 192.964844 262.722656 L 193.398438 262.117188 C 194.1875 261.035156 194.859375 260.367188 195.304688 260.007812 C 195.296875 260.191406 195.285156 260.515625 195.285156 260.515625 C 195.285156 262.746094 196.203125 264.929688 196.953125 266.34375 C 196.109375 266.371094 195.335938 266.488281 195.023438 266.746094 L 194.804688 267.152344 C 194.800781 267.179688 194.800781 267.203125 194.800781 267.230469 C 194.800781 267.558594 195.054688 268.152344 198.917969 268.664062 C 200.652344 268.890625 203.253906 269.300781 206.257812 269.984375 C 202.027344 288.570312 210.671875 298.429688 217.242188 305.925781 C 218.972656 307.894531 220.601562 309.753906 221.707031 311.492188 C 227.535156 320.652344 231.832031 329.675781 220.496094 339.390625 C 215.621094 343.570312 210.449219 344.410156 206.671875 341.632812 C 203.519531 339.316406 202.277344 335.199219 203.71875 331.835938 C 204.964844 328.933594 206.804688 327.550781 208.765625 328.046875 C 210.292969 328.433594 211.375 329.808594 211.289062 330.730469 C 211.234375 331.335938 211.683594 331.875 212.289062 331.929688 C 212.894531 331.988281 213.429688 331.539062 213.484375 330.933594 C 213.675781 328.832031 211.761719 326.53125 209.308594 325.910156 C 208.15625 325.617188 204.199219 325.121094 201.691406 330.964844 C 199.851562 335.261719 201.394531 340.496094 205.363281 343.410156 C 210.027344 346.835938 216.222656 345.960938 221.929688 341.066406 C 234.597656 330.210938 229.683594 319.917969 223.570312 310.308594 C 222.371094 308.425781 220.6875 306.507812 218.902344 304.472656 C 212.679688 297.375 204.511719 288.042969 208.425781 270.507812 C 214.078125 271.964844 220.675781 274.363281 225.621094 278.25 C 236.683594 286.949219 252.699219 291.5625 264.570312 289.472656 C 269.480469 288.609375 272.601562 288.136719 274.035156 288.285156 C 274.695312 288.351562 274.726562 288.378906 274.941406 289.304688 C 274.824219 289.453125 274.546875 289.722656 273.933594 290.105469 C 271.195312 291.816406 262.089844 294.878906 251.441406 293.417969 L 248.757812 292.972656 C 244.113281 292.15625 243.78125 292.175781 243.617188 292.703125 L 243.554688 292.894531 L 243.675781 293.109375 C 244.128906 293.820312 249.550781 295.386719 251.320312 295.621094 C 257.054688 296.378906 262.605469 295.925781 267.078125 294.9375 C 266.644531 295.925781 265.960938 297.277344 264.941406 298.761719 C 263.988281 300.148438 263.523438 301.308594 263.523438 302.339844 C 263.523438 302.648438 263.566406 302.945312 263.648438 303.234375 C 264.035156 304.601562 265.261719 305.335938 266.238281 305.78125 C 266.238281 305.785156 266.230469 305.800781 266.230469 305.800781 C 266 306.335938 264.726562 307.628906 262.894531 306.835938 C 262.375 306.613281 261.332031 305.578125 260.566406 304.824219 C 259.3125 303.589844 258.890625 303.171875 258.453125 303.425781 C 258.292969 303.523438 258.203125 303.703125 258.214844 303.910156 C 258.257812 304.609375 260.074219 307.433594 261.472656 308.519531 C 261.527344 308.988281 261.46875 309.761719 260.628906 310.191406 C 260.019531 310.503906 259.265625 310.734375 257.953125 309.429688 L 257.183594 308.59375 C 255.175781 306.355469 254.742188 306.011719 254.285156 306.308594 C 254.207031 306.355469 254.074219 306.476562 254.054688 306.710938 C 254.027344 307.039062 254.316406 307.730469 254.722656 308.480469 C 253.050781 309.425781 244.851562 312.660156 229.199219 297.363281 L 229.089844 297.257812 C 225.714844 293.957031 222.523438 290.839844 219.042969 288.949219 C 217.136719 287.917969 212.246094 287.421875 211.507812 287.871094 C 211.351562 287.964844 211.257812 288.125 211.261719 288.296875 L 211.261719 288.300781 C 211.273438 288.785156 211.757812 288.921875 213.800781 289.492188 C 215.289062 289.90625 217.140625 290.421875 218.148438 290.984375 C 221.316406 292.746094 224.34375 295.703125 227.546875 298.835938 L 227.65625 298.941406 C 244.492188 315.394531 253.605469 311.765625 255.910156 310.355469 C 256.175781 310.71875 256.425781 311.019531 256.617188 311.195312 C 258.253906 312.707031 259.945312 313.027344 261.640625 312.152344 C 263 311.453125 263.519531 310.308594 263.644531 309.273438 C 265.847656 309.453125 267.648438 308.070312 268.253906 306.679688 C 268.773438 305.488281 268.386719 304.332031 267.324219 303.863281 C 266.398438 303.457031 265.890625 303.054688 265.769531 302.628906 C 265.660156 302.25 265.746094 301.484375 266.757812 300.011719 C 268.589844 297.351562 269.433594 295.09375 269.707031 294.261719 C 272.761719 293.351562 275.078125 292.207031 276.242188 291.128906 C 277.003906 290.421875 277.300781 289.703125 277.132812 288.984375 L 277.117188 288.914062 C 276.34375 285.589844 274.886719 285.453125 265.722656 287.035156 C 266.007812 284.675781 266.117188 280.105469 263.714844 275.707031 C 263.265625 274.988281 262.695312 274.894531 262.394531 274.902344 C 261.328125 274.929688 260.777344 275.910156 259.5625 278.054688 C 258.105469 280.636719 255.914062 284.507812 252.335938 287.308594 C 247.789062 286.648438 243.09375 285.300781 238.625 283.367188 C 240.730469 281.511719 241.367188 278.707031 241.808594 276.746094 C 241.855469 276.542969 241.929688 276.195312 242.015625 275.875 C 242.234375 276.226562 242.515625 276.742188 242.855469 277.488281 L 243.257812 278.398438 C 245.167969 282.742188 245.464844 283.117188 246.003906 282.949219 L 246.316406 282.664062 C 246.632812 281.953125 245.523438 277.988281 244.90625 276.636719 C 244.335938 275.398438 243.792969 274.507812 243.257812 273.929688 C 243.832031 274.203125 244.40625 274.484375 244.988281 274.769531 C 246.789062 275.644531 248.648438 276.550781 250.566406 277.351562 C 252.160156 278.015625 257.300781 279.273438 258.046875 278.878906 L 258.222656 278.785156 L 258.300781 278.546875 C 258.414062 278 258.003906 277.789062 253.910156 276.265625 L 251.144531 275.199219 C 249.382812 274.457031 247.648438 273.609375 245.96875 272.792969 C 242.242188 270.972656 238.398438 269.097656 234.144531 268.230469 C 232.125 267.820312 226.726562 268.105469 226.117188 268.65625 L 225.957031 268.804688 L 225.957031 269.070312 C 225.992188 269.433594 226.207031 269.578125 227.425781 269.71875 C 226.617188 270.363281 225.453125 271.671875 223.816406 274.328125 C 221.816406 273.097656 219.679688 272.046875 217.519531 271.15625 C 217.28125 270.191406 216.859375 267.648438 218.363281 265.3125 C 220.046875 262.6875 220.441406 260.894531 219.5625 259.824219 C 218.867188 258.976562 217.652344 258.886719 215.953125 259.554688 C 214.382812 260.171875 212.226562 262.035156 210.378906 263.84375 C 210.769531 262.757812 211.183594 261.65625 211.65625 260.519531 C 212.125 259.394531 212.613281 258.328125 213.109375 257.300781 C 213.492188 257.214844 213.875 257.132812 214.261719 257.050781 C 223.171875 255.09375 232.378906 253.074219 239.972656 257.308594 C 242.425781 258.675781 244.9375 260.660156 247.59375 262.765625 C 256.671875 269.953125 267.953125 278.851562 284.816406 267.8125 C 284.785156 268.878906 284.535156 270.367188 283.574219 271.902344 C 282.5625 273.519531 280.96875 274.890625 278.84375 275.972656 C 277.960938 276.421875 276.199219 277.039062 274.648438 277.582031 C 271.542969 278.675781 271.324219 278.78125 271.324219 279.214844 L 271.367188 279.667969 L 271.609375 279.769531 C 272.367188 280.140625 278.015625 278.839844 279.644531 278.035156 C 282.246094 276.746094 284.203125 275.066406 285.464844 273.042969 C 287.789062 269.296875 286.867188 265.734375 286.828125 265.582031 C 286.734375 265.234375 286.472656 264.953125 286.132812 264.832031 C 285.796875 264.710938 285.417969 264.761719 285.125 264.972656 C 268.746094 276.691406 258.234375 268.375 248.960938 261.035156 C 246.230469 258.875 243.65625 256.835938 241.046875 255.382812 C 239.628906 254.59375 238.175781 254.003906 236.691406 253.570312 C 238.394531 251.984375 239.972656 248.082031 240.597656 246.402344 C 244.226562 246.894531 247.914062 246.878906 251.355469 246.410156 C 251.542969 247.152344 251.867188 248.699219 251.867188 250.628906 C 251.867188 251.34375 251.824219 252.109375 251.710938 252.90625 C 251.691406 253.039062 251.660156 253.261719 251.660156 253.523438 C 251.660156 254.023438 251.773438 254.660156 252.320312 255.046875 C 252.597656 255.242188 253.183594 255.503906 254.023438 255.070312 C 255.195312 254.464844 256.824219 252.40625 257.914062 250.636719 C 258.835938 249.140625 259.4375 245.917969 259.066406 245.253906 C 258.972656 245.082031 258.804688 244.984375 258.625 244.984375 C 258.15625 244.984375 257.929688 245.460938 257.199219 247.121094 C 256.847656 247.925781 256.445312 248.839844 256.082031 249.421875 C 255.40625 250.511719 254.609375 251.5625 253.960938 252.277344 C 254.007812 251.714844 254.078125 251.160156 254.078125 250.585938 C 254.078125 248.585938 253.765625 246.960938 253.539062 246.046875 C 256.828125 245.386719 259.808594 244.289062 262.15625 242.773438 C 263.476562 241.925781 264.652344 241.238281 265.683594 240.703125 C 266.730469 242.355469 266.898438 246.066406 267.015625 248.609375 C 267.152344 251.671875 267.242188 252.9375 268.0625 253.5625 C 268.398438 253.820312 268.8125 253.910156 269.226562 253.816406 C 269.226562 253.816406 269.347656 253.78125 269.347656 253.78125 C 274.09375 252.121094 277.332031 242.691406 278.71875 238.667969 L 278.921875 238.082031 C 279.382812 236.742188 280.679688 236.117188 283.488281 235.808594 C 283.453125 236.539062 283.339844 237.351562 283.234375 238.097656 C 282.933594 240.234375 282.695312 241.921875 283.75 242.820312 C 284.121094 243.136719 284.785156 243.445312 285.855469 243.117188 C 288.570312 242.277344 291.222656 237.457031 292.203125 235.492188 C 292.863281 235.484375 293.765625 235.476562 293.765625 235.476562 C 300.144531 235.410156 303.460938 234.574219 304.851562 232.671875 C 305.96875 231.148438 305.605469 229.300781 305.164062 227.859375 C 304.410156 225.390625 302.910156 224.761719 301.8125 224.300781 C 300.882812 223.910156 300.371094 223.695312 300.046875 222.542969 C 299.742188 221.472656 300 220.011719 300.269531 218.464844 C 300.773438 215.605469 301.339844 212.363281 298.964844 209.546875 C 296.105469 206.160156 290.714844 203.484375 281.242188 209.972656 Z M 285.179688 240.769531 C 285.179688 240.101562 285.34375 238.921875 285.417969 238.40625 C 285.546875 237.476562 285.675781 236.53125 285.699219 235.640625 C 286.847656 235.582031 288.171875 235.546875 289.695312 235.523438 C 288.414062 237.859375 286.558594 240.589844 285.207031 241.007812 C 285.195312 240.929688 285.179688 240.878906 285.179688 240.769531 Z M 263.4375 287.417969 C 260.886719 287.800781 258.144531 287.867188 255.3125 287.644531 C 258.277344 284.808594 260.164062 281.476562 261.480469 279.140625 C 261.726562 278.710938 262.003906 278.222656 262.253906 277.8125 C 263.003906 279.488281 263.480469 281.359375 263.613281 283.292969 C 263.640625 283.734375 263.65625 284.164062 263.65625 284.5625 C 263.65625 285.796875 263.535156 286.792969 263.4375 287.417969 Z M 221.746094 253.296875 C 221.886719 253.003906 222.035156 252.695312 222.199219 252.359375 C 223.359375 249.917969 224.953125 246.574219 227.621094 245.214844 C 227.636719 245.207031 227.644531 245.199219 227.65625 245.191406 L 231.417969 245.648438 C 231.734375 247.933594 232.328125 251.082031 233.332031 252.859375 C 229.574219 252.34375 225.671875 252.652344 221.746094 253.296875 Z M 206.875 267.53125 C 206.777344 267.644531 206.703125 267.730469 206.65625 267.78125 C 203.847656 267.148438 201.386719 266.753906 199.609375 266.515625 C 199.183594 265.867188 197.28125 262.820312 197.507812 260.058594 C 197.546875 259.578125 197.519531 259.191406 197.445312 258.871094 C 199.15625 259.117188 200.957031 259.179688 202.847656 259.035156 C 205.285156 258.851562 207.800781 258.410156 210.40625 257.875 C 210.140625 258.460938 209.878906 259.058594 209.625 259.671875 C 208.464844 262.445312 207.5625 265.0625 206.875 267.53125 Z M 193.824219 240.765625 C 195.632812 240.457031 197.503906 240.382812 199.34375 240.527344 C 201.496094 240.695312 203.285156 240.933594 204.890625 241.210938 C 200.46875 244.878906 198.648438 250.582031 197.613281 253.839844 C 197.613281 253.839844 197.460938 254.28125 197.316406 254.714844 C 194.09375 250.605469 193.824219 243.09375 193.824219 240.800781 C 193.824219 240.800781 193.824219 240.789062 193.824219 240.765625 Z M 199.714844 254.507812 C 200.792969 251.113281 202.796875 244.851562 207.859375 241.816406 C 208.761719 242.019531 209.632812 242.234375 210.519531 242.449219 C 213.046875 243.074219 215.664062 243.714844 219.230469 244.167969 C 216.539062 247.105469 213.929688 250.78125 211.601562 255.371094 C 208.472656 256.042969 205.492188 256.621094 202.679688 256.835938 C 201.359375 256.9375 200.085938 256.921875 198.863281 256.816406 C 199.136719 256.316406 199.375 255.574219 199.714844 254.507812 Z M 224.453125 244.804688 C 222.449219 246.703125 221.191406 249.34375 220.207031 251.410156 C 220.003906 251.832031 219.664062 252.539062 219.375 253.054688 C 219.304688 252.832031 219.238281 252.558594 219.179688 252.175781 L 219.144531 251.949219 C 218.84375 249.9375 218.628906 249.03125 218.367188 248.644531 C 219.542969 247.101562 220.75 245.726562 221.964844 244.503906 Z M 217.054688 250.46875 C 216.96875 251.398438 216.972656 252.390625 217.046875 252.789062 C 217.136719 253.296875 217.257812 253.738281 217.40625 254.117188 C 216.410156 254.324219 215.414062 254.539062 214.425781 254.753906 C 215.269531 253.210938 216.152344 251.78125 217.054688 250.46875 Z M 217.800781 261.324219 C 217.765625 261.660156 217.546875 262.496094 216.503906 264.121094 C 215.375 265.878906 215.0625 267.679688 215.0625 269.148438 C 215.0625 269.535156 215.085938 269.894531 215.121094 270.226562 C 213.066406 269.484375 211.023438 268.871094 209.089844 268.371094 C 210.769531 266.523438 214.636719 262.441406 216.761719 261.605469 C 217.300781 261.394531 217.621094 261.335938 217.800781 261.324219 Z M 228.453125 273.140625 C 228.453125 274.710938 228.054688 276.195312 227.75 277.101562 C 227.492188 276.910156 227.234375 276.714844 226.984375 276.515625 C 226.554688 276.179688 226.113281 275.855469 225.664062 275.542969 C 226.667969 273.917969 227.667969 272.582031 228.332031 271.863281 C 228.40625 272.285156 228.453125 272.710938 228.453125 273.140625 Z M 235.300781 244.835938 L 235.269531 244.734375 C 235.660156 245.242188 236.84375 245.707031 237.125 245.773438 C 237.542969 245.867188 237.960938 245.949219 238.378906 246.027344 C 237.425781 248.515625 236.125 251.101562 235.246094 251.90625 C 234.824219 251.191406 234.117188 248.78125 233.660156 245.707031 C 234.195312 245.617188 234.773438 245.46875 235.042969 245.253906 Z M 239.65625 276.261719 L 239.65625 276.265625 C 239.199219 278.292969 238.574219 281.070312 236.324219 282.3125 C 233.984375 281.175781 231.730469 279.878906 229.613281 278.4375 C 230.117188 277.144531 231.289062 273.5625 230.246094 270.257812 C 230.207031 270.152344 230.167969 270.054688 230.121094 269.96875 C 231.414062 270.074219 232.792969 270.199219 233.621094 270.363281 C 236.378906 270.914062 238.960938 271.933594 241.5625 273.132812 C 240.335938 273.257812 239.988281 274.78125 239.65625 276.261719 " fill-opacity="1" fill-rule="nonzero"/><path fill="#ffffff" d="M 181.269531 276.429688 C 183.316406 275.386719 185.402344 274.335938 187.261719 273.621094 C 186.84375 273.617188 186.414062 273.617188 185.941406 273.632812 L 184.207031 273.691406 C 180.289062 273.8125 172.203125 274.070312 171.117188 275.320312 C 171.0625 275.585938 170.976562 276.089844 170.976562 276.707031 C 170.976562 278.226562 171.492188 279.238281 172.5 279.722656 C 173.683594 280.289062 178.25 277.964844 181.269531 276.429688 " fill-opacity="1" fill-rule="nonzero"/><path fill="#ffd700" d="M 195.125 353.5625 C 195.125 353.625 195.125 353.683594 195.128906 353.742188 C 195.15625 354.15625 195.242188 354.546875 195.390625 354.90625 C 195.878906 356.097656 196.949219 356.894531 198.570312 357.28125 C 203.78125 358.523438 215.738281 350.550781 216.445312 349.269531 C 216.851562 348.535156 216.507812 347.980469 216.390625 347.824219 C 215.773438 347.003906 214.820312 347.21875 211.996094 347.863281 L 211.988281 347.867188 C 210.71875 348.15625 209.136719 348.519531 207.390625 348.824219 C 205.878906 349.085938 204.230469 349.195312 202.488281 349.148438 L 200.84375 349.089844 C 197.902344 348.96875 197.128906 348.964844 196.996094 349.578125 C 196.992188 349.601562 196.988281 349.636719 196.988281 349.679688 C 196.988281 349.75 197.035156 349.839844 197.078125 349.929688 C 197.035156 349.949219 196.996094 349.9375 196.945312 349.972656 C 196.273438 350.371094 195.125 352.082031 195.125 353.5625 Z M 197.863281 350.492188 C 198.941406 350.945312 200.886719 351.324219 202.582031 351.359375 C 204.402344 351.398438 206.148438 351.277344 207.769531 350.996094 C 209.242188 350.742188 210.53125 350.457031 211.675781 350.195312 C 207.785156 352.65625 201.691406 355.757812 199.078125 355.136719 C 198.191406 354.925781 197.636719 354.566406 197.433594 354.070312 C 197.363281 353.898438 197.328125 353.691406 197.328125 353.457031 C 197.328125 353.441406 197.328125 353.421875 197.328125 353.402344 C 197.335938 353.074219 197.476562 352.503906 197.601562 351.992188 C 197.753906 351.363281 197.871094 350.890625 197.871094 350.542969 C 197.871094 350.523438 197.863281 350.511719 197.863281 350.492188 " fill-opacity="1" fill-rule="nonzero"/><path fill="#ffd700" d="M 106.492188 186.328125 C 106.300781 186.296875 106.121094 186.367188 106.011719 186.511719 C 105.9375 186.605469 105.902344 186.703125 105.902344 186.816406 C 105.902344 187.175781 106.25 187.722656 107.054688 188.941406 C 107.648438 189.835938 108.320312 190.851562 108.539062 191.453125 C 108.914062 192.480469 109.1875 193.671875 109.40625 194.625 C 109.773438 196.226562 109.910156 196.824219 110.449219 196.824219 C 110.550781 196.824219 110.742188 196.792969 110.890625 196.574219 C 111.363281 195.894531 111.417969 192.832031 110.589844 190.621094 C 110.0625 189.207031 107.308594 186.445312 106.492188 186.328125 " fill-opacity="1" fill-rule="nonzero"/><path fill="#ffffff" d="M 281.847656 220.777344 C 281.816406 220.703125 281.789062 220.621094 281.773438 220.535156 L 281.398438 220.777344 L 281.847656 220.777344 " fill-opacity="1" fill-rule="nonzero"/><path fill="#ffffff" d="M 289.914062 224.523438 C 289.976562 224.785156 290.035156 224.964844 290.089844 225.105469 C 290.136719 225.039062 290.171875 225.003906 290.222656 224.898438 C 290.457031 224.414062 290.589844 223.804688 290.589844 223.226562 C 290.589844 222.621094 290.449219 222.074219 290.179688 221.640625 C 289.660156 220.804688 288.417969 220.617188 287.273438 220.640625 C 288.394531 221.402344 289.484375 222.605469 289.914062 224.523438 " fill-opacity="1" fill-rule="nonzero"/><path fill="#ffd700" d="M 281.847656 220.777344 C 282.015625 221.179688 282.40625 221.453125 282.859375 221.453125 C 283.023438 221.457031 286.976562 221.511719 287.765625 225.007812 C 288.105469 226.515625 288.753906 227.375 289.6875 227.554688 C 290.484375 227.707031 291.273438 227.304688 291.867188 226.449219 C 292.875 224.992188 293.21875 222.359375 292.054688 220.480469 C 289.804688 216.847656 283.234375 219.046875 282.492188 219.3125 C 281.984375 219.492188 281.6875 220.007812 281.773438 220.535156 C 281.789062 220.621094 281.816406 220.703125 281.847656 220.777344 Z M 287.273438 220.640625 C 288.417969 220.617188 289.660156 220.804688 290.179688 221.640625 C 290.449219 222.074219 290.589844 222.621094 290.589844 223.226562 C 290.589844 223.804688 290.457031 224.414062 290.222656 224.898438 C 290.171875 225.003906 290.136719 225.039062 290.089844 225.105469 C 290.035156 224.964844 289.976562 224.785156 289.914062 224.523438 C 289.484375 222.605469 288.394531 221.402344 287.273438 220.640625 " fill-opacity="1" fill-rule="nonzero"/><path fill="#ffd700" d="M 253.992188 235.726562 C 253.992188 236.703125 254.78125 237.492188 255.757812 237.492188 C 256.730469 237.492188 257.523438 236.703125 257.523438 235.726562 C 257.523438 234.753906 256.730469 233.960938 255.757812 233.960938 C 254.78125 233.960938 253.992188 234.753906 253.992188 235.726562 " fill-opacity="1" fill-rule="nonzero"/><g clip-path="url(#937128772f)"><path fill="#ffd700" d="M 304.164062 278.949219 C 303.191406 278.949219 302.398438 279.742188 302.398438 280.714844 C 302.398438 281.6875 303.191406 282.480469 304.164062 282.480469 C 305.136719 282.480469 305.929688 281.6875 305.929688 280.714844 C 305.929688 279.742188 305.136719 278.949219 304.164062 278.949219 " fill-opacity="1" fill-rule="nonzero"/></g><path fill="#ffd700" d="M 144.1875 326.277344 C 144.1875 327.25 144.976562 328.042969 145.949219 328.042969 C 146.925781 328.042969 147.714844 327.25 147.714844 326.277344 C 147.714844 325.304688 146.925781 324.511719 145.949219 324.511719 C 144.976562 324.511719 144.1875 325.304688 144.1875 326.277344 " fill-opacity="1" fill-rule="nonzero"/></svg>